<svg width="1947" height="598" viewBox="0 0 1947 598" fill="none" xmlns="http://www.w3.org/2000/svg">
<path d="M205.624 320.651C205.784 321.008 207.079 323.115 206.563 323.568C205.894 324.156 203.737 322.622 203.224 322.292C200.25 320.38 197.968 316.022 199.588 312.523C200.693 310.136 204.033 313.311 205.235 314.189C209.412 317.241 212.517 321.792 214.273 326.665C214.614 327.611 215.702 332.26 213.078 331.589" stroke="#DCEFF8" stroke-width="4" stroke-linecap="round" stroke-linejoin="round"/>
<path d="M208.695 304.703C204.21 303.679 204.2 307.998 205.885 311.003C207.427 313.753 209.854 317.175 212.41 319.088C213.814 320.139 214.795 321.009 216.632 320.723C219.312 320.305 221.714 315.718 221.33 313.248" stroke="#DCEFF8" stroke-width="4" stroke-linecap="round" stroke-linejoin="round"/>
<path d="M217.688 301.321C218.27 299.114 218.852 296.908 219.434 294.702" stroke="#DCEFF8" stroke-width="4" stroke-linecap="round" stroke-linejoin="round"/>
<path d="M221.69 306.647C221.88 302.689 222.459 299.591 223.995 295.975" stroke="#DCEFF8" stroke-width="4" stroke-linecap="round" stroke-linejoin="round"/>
<path d="M220.144 277.443C220.712 278.152 225.667 285.668 227.174 285.052C228.745 284.409 228.176 280.398 228.041 279.294C227.662 276.21 226.117 273.981 225.195 271.145C225.138 270.971 229.332 273.747 229.707 274.024C234.297 277.413 238.789 280.944 243.236 284.519C245.581 286.403 251.172 289.77 251.648 293.137C252.414 298.557 243.893 302.39 239.889 303.43" stroke="#DCEFF8" stroke-width="4" stroke-linecap="round" stroke-linejoin="round"/>
<path d="M224.389 266.093C226.877 261.446 226.404 263.703 229.625 265.872C230.474 266.443 232.317 263.154 232.839 262.439" stroke="#DCEFF8" stroke-width="4" stroke-linecap="round" stroke-linejoin="round"/>
<path d="M231.982 246.205C234.823 248.014 237.604 250.09 240.604 251.636C241.662 252.182 241.87 252.112 241.028 252.814" stroke="#DCEFF8" stroke-width="4" stroke-linecap="round" stroke-linejoin="round"/>
<path d="M233.65 252.626C235.075 249.62 236.5 246.615 237.925 243.609" stroke="#DCEFF8" stroke-width="4" stroke-linecap="round" stroke-linejoin="round"/>
<path d="M231.65 225.295C234.948 227.657 250.56 240.964 248.279 229.005C247.893 226.978 244.117 216.47 245.771 217.678C252.037 222.256 261.085 226.289 268.973 226.19" stroke="#DCEFF8" stroke-width="4" stroke-linecap="round" stroke-linejoin="round"/>
<path d="M1774.71 285.327C1774.52 284.986 1773.04 283.004 1773.51 282.506C1774.13 281.86 1776.41 283.195 1776.95 283.477C1780.09 285.114 1782.75 289.25 1781.45 292.88C1780.57 295.356 1776.95 292.495 1775.68 291.728C1771.24 289.064 1767.74 284.81 1765.55 280.115C1765.13 279.203 1763.63 274.671 1766.3 275.103" stroke="#D4E1E6" stroke-width="4" stroke-linecap="round" stroke-linejoin="round"/>
<path d="M1773.08 301.486C1777.64 302.103 1777.26 297.801 1775.32 294.96C1773.53 292.359 1770.81 289.169 1768.09 287.494C1766.6 286.573 1765.54 285.795 1763.74 286.245C1761.11 286.901 1759.13 291.687 1759.73 294.112" stroke="#D4E1E6" stroke-width="4" stroke-linecap="round" stroke-linejoin="round"/>
<path d="M1764.43 305.664C1764.05 307.913 1763.67 310.163 1763.29 312.412" stroke="#D4E1E6" stroke-width="4" stroke-linecap="round" stroke-linejoin="round"/>
<path d="M1759.97 300.718C1760.13 304.678 1759.83 307.816 1758.63 311.555" stroke="#D4E1E6" stroke-width="4" stroke-linecap="round" stroke-linejoin="round"/>
<path d="M1764.13 329.666C1763.5 329.011 1757.89 321.97 1756.45 322.719C1754.94 323.5 1755.87 327.445 1756.1 328.532C1756.76 331.57 1758.49 333.65 1759.67 336.392C1759.74 336.56 1755.31 334.172 1754.91 333.93C1750.04 330.967 1745.25 327.854 1740.5 324.694C1737.99 323.028 1732.12 320.178 1731.34 316.866C1730.09 311.537 1738.24 306.954 1742.13 305.558" stroke="#D4E1E6" stroke-width="4" stroke-linecap="round" stroke-linejoin="round"/>
<path d="M1760.92 341.351C1758.86 346.203 1759.13 343.913 1755.73 342.042C1754.83 341.549 1753.29 344.991 1752.84 345.75" stroke="#D4E1E6" stroke-width="4" stroke-linecap="round" stroke-linejoin="round"/>
<path d="M1755.15 361.841C1752.16 360.295 1749.2 358.477 1746.07 357.207C1744.97 356.759 1744.77 356.847 1745.55 356.072" stroke="#D4E1E6" stroke-width="4" stroke-linecap="round" stroke-linejoin="round"/>
<path d="M1752.91 355.596C1751.76 358.718 1750.61 361.839 1749.46 364.96" stroke="#D4E1E6" stroke-width="4" stroke-linecap="round" stroke-linejoin="round"/>
<path d="M1757.36 382.637C1753.86 380.581 1737.12 368.731 1740.46 380.436C1741.03 382.42 1745.73 392.547 1743.98 391.492C1737.33 387.496 1727.95 384.293 1720.11 385.1" stroke="#D4E1E6" stroke-width="4" stroke-linecap="round" stroke-linejoin="round"/>
<path d="M168.768 15.6132C164.305 21.3774 167.833 13.9204 169.663 15.1338C170.811 15.8951 169.491 18.4553 169.214 19.2446C167.475 24.2017 163.626 28.5772 159.805 32.3438C159.626 32.5196 153.996 38.5495 154.983 35.3142C155.144 34.7888 156.41 29.6597 157.197 30.043C158.424 30.6402 159.013 34.2431 159.491 35.2579C160.41 37.2086 161.723 38.9048 163.222 40.5718" stroke="#DAECF4" stroke-width="4" stroke-linecap="round" stroke-linejoin="round"/>
<path d="M177.297 30.0254C177.791 30.9255 178.243 31.8254 178.689 32.7391" stroke="#DAECF4" stroke-width="3" stroke-linecap="round" stroke-linejoin="round"/>
<path d="M179.496 30.9047C178.031 31.2927 177.798 31.7755 176.768 32.5687" stroke="#DAECF4" stroke-width="3" stroke-linecap="round" stroke-linejoin="round"/>
<path d="M202.742 29.9151C200.195 32.7089 203.274 25.026 203.685 24.1835C204.481 22.5555 205.043 23.0573 205.061 24.676C205.086 26.9948 204.48 29.2922 203.509 31.3628C201.378 35.9074 197.495 40.3743 193.066 43.3214C191.238 44.5377 189.215 45.2562 186.93 45.6962C186.02 45.8713 183.716 46.2893 184.067 45.5506C186.355 40.7333 193.877 43.9842 196.26 47.379C197.021 48.4633 199.172 54.3653 200.419 52.7993" stroke="#DAECF4" stroke-width="4" stroke-linecap="round" stroke-linejoin="round"/>
<path d="M212.651 38.1834C216.088 38.8367 219.379 39.7999 222.726 40.8216" stroke="#DAECF4" stroke-width="4" stroke-linecap="round" stroke-linejoin="round"/>
<path d="M209.375 42.5474C214.244 45.6338 220.258 46.7093 225.353 49.6089" stroke="#DAECF4" stroke-width="4" stroke-linecap="round" stroke-linejoin="round"/>
<path d="M122.31 169.406C121.526 169.406 116.191 168.942 116.152 169.928C116.112 170.929 116.152 171.939 116.152 172.942C116.152 173.144 116.097 175.614 116.445 174.831C116.754 174.136 118.168 174.359 118.791 174.391C120.246 174.468 122.097 176.132 122.734 177.405C124.973 181.883 114.721 182.409 112.633 180.843" stroke="#D4E1E6" stroke-width="4" stroke-linecap="round" stroke-linejoin="round"/>
<path d="M149.257 169.406C148.473 169.406 143.139 168.942 143.099 169.928C143.059 170.929 143.099 171.939 143.099 172.942C143.099 173.144 143.044 175.614 143.392 174.831C143.701 174.136 145.116 174.359 145.738 174.391C147.193 174.468 149.044 176.132 149.681 177.405C151.92 181.883 141.668 182.409 139.58 180.843" stroke="#D4E1E6" stroke-width="4" stroke-linecap="round" stroke-linejoin="round"/>
<path d="M1841.68 571.108C1840.89 571.108 1835.56 570.644 1835.52 571.63C1835.48 572.631 1835.52 573.641 1835.52 574.644C1835.52 574.846 1835.46 577.316 1835.81 576.533C1836.12 575.838 1837.54 576.061 1838.16 576.094C1839.61 576.17 1841.46 577.834 1842.1 579.108C1844.34 583.586 1834.09 584.111 1832 582.545" stroke="#D4E1E6" stroke-width="4" stroke-linecap="round" stroke-linejoin="round"/>
<path d="M130.542 172.789C130.542 175.64 130.119 178.784 131.026 181.503" stroke="#D4E1E6" stroke-width="4" stroke-linecap="round" stroke-linejoin="round"/>
<path d="M126.67 178.114C129.252 178.114 131.834 178.114 134.415 178.114" stroke="#D4E1E6" stroke-width="4" stroke-linecap="round" stroke-linejoin="round"/>
<path d="M442.618 347.72C442.372 346.975 441.14 341.764 440.192 342.035C439.229 342.311 438.282 342.666 437.33 342.98C437.138 343.044 434.775 343.766 435.627 343.851C436.384 343.927 436.616 345.34 436.781 345.941C437.164 347.347 436.165 349.626 435.155 350.63C431.604 354.16 427.891 344.59 428.724 342.116" stroke="#DCEFF8" stroke-width="4" stroke-linecap="round" stroke-linejoin="round"/>
<path d="M451.067 373.309C450.821 372.565 449.59 367.353 448.641 367.625C447.678 367.901 446.731 368.255 445.779 368.57C445.587 368.633 443.224 369.356 444.077 369.441C444.833 369.516 445.066 370.929 445.23 371.53C445.613 372.936 444.614 375.215 443.604 376.219C440.054 379.749 436.34 370.18 437.173 367.705" stroke="#DCEFF8" stroke-width="4" stroke-linecap="round" stroke-linejoin="round"/>
<path d="M441.986 356.598C439.279 357.492 436.161 358.076 433.863 359.789" stroke="#DCEFF8" stroke-width="4" stroke-linecap="round" stroke-linejoin="round"/>
<path d="M435.715 354.589C436.524 357.041 437.334 359.493 438.143 361.944" stroke="#DCEFF8" stroke-width="4" stroke-linecap="round" stroke-linejoin="round"/>
<path d="M893.878 310.556C892.847 311.172 885.464 314.754 886.187 316.082C886.922 317.431 887.769 318.729 888.556 320.047C888.715 320.313 890.585 323.606 890.427 322.302C890.287 321.145 892.323 320.326 893.168 319.88C895.142 318.837 898.884 319.571 900.723 320.746C907.188 324.876 894.116 333.626 890.138 333.207" stroke="#DCEFF8" stroke-width="4" stroke-linecap="round" stroke-linejoin="round"/>
<path d="M929.328 289.375C928.296 289.991 920.913 293.573 921.636 294.901C922.371 296.25 923.218 297.547 924.005 298.866C924.164 299.132 926.034 302.425 925.877 301.121C925.737 299.964 927.772 299.145 928.617 298.699C930.591 297.656 934.333 298.389 936.172 299.564C942.637 303.695 929.565 312.445 925.587 312.026" stroke="#DCEFF8" stroke-width="4" stroke-linecap="round" stroke-linejoin="round"/>
<path d="M907.366 308.535C909.606 312.286 911.522 316.753 914.851 319.617" stroke="#DCEFF8" stroke-width="4" stroke-linecap="round" stroke-linejoin="round"/>
<path d="M906.457 318.584C909.853 316.555 913.25 314.525 916.646 312.496" stroke="#DCEFF8" stroke-width="4" stroke-linecap="round" stroke-linejoin="round"/>
<path d="M1595.82 385.907C1594.78 386.523 1587.4 390.105 1588.12 391.433C1588.86 392.781 1589.71 394.079 1590.49 395.398C1590.65 395.663 1592.52 398.956 1592.36 397.653C1592.22 396.496 1594.26 395.677 1595.11 395.23C1597.08 394.188 1600.82 394.921 1602.66 396.096C1609.13 400.227 1596.05 408.976 1592.08 408.557" stroke="#DCEFF8" stroke-width="4" stroke-linecap="round" stroke-linejoin="round"/>
<path d="M1631.27 364.726C1630.23 365.342 1622.85 368.924 1623.57 370.252C1624.31 371.6 1625.16 372.898 1625.94 374.216C1626.1 374.482 1627.97 377.775 1627.81 376.472C1627.67 375.315 1629.71 374.496 1630.55 374.049C1632.53 373.006 1636.27 373.74 1638.11 374.915C1644.57 379.046 1631.5 387.795 1627.52 387.376" stroke="#DCEFF8" stroke-width="4" stroke-linecap="round" stroke-linejoin="round"/>
<path d="M1609.3 383.886C1611.54 387.636 1613.46 392.103 1616.79 394.968" stroke="#DCEFF8" stroke-width="4" stroke-linecap="round" stroke-linejoin="round"/>
<path d="M1608.39 393.935C1611.79 391.905 1615.19 389.876 1618.58 387.847" stroke="#DCEFF8" stroke-width="4" stroke-linecap="round" stroke-linejoin="round"/>
<path d="M897.655 485.223C897.409 484.478 896.178 479.267 895.229 479.538C894.266 479.814 893.319 480.169 892.367 480.483C892.175 480.547 889.812 481.269 890.664 481.354C891.421 481.43 891.654 482.842 891.818 483.444C892.201 484.85 891.202 487.129 890.192 488.133C886.641 491.663 882.928 482.093 883.761 479.619" stroke="#DCEFF8" stroke-width="4" stroke-linecap="round" stroke-linejoin="round"/>
<path d="M906.104 510.812C905.858 510.068 904.627 504.856 903.678 505.128C902.715 505.404 901.768 505.758 900.816 506.073C900.624 506.136 898.261 506.859 899.114 506.944C899.87 507.019 900.103 508.432 900.267 509.033C900.65 510.439 899.651 512.718 898.641 513.722C895.091 517.252 891.377 507.683 892.21 505.208" stroke="#DCEFF8" stroke-width="4" stroke-linecap="round" stroke-linejoin="round"/>
<path d="M897.023 494.101C894.316 494.994 891.198 495.579 888.9 497.292" stroke="#DCEFF8" stroke-width="4" stroke-linecap="round" stroke-linejoin="round"/>
<path d="M890.752 492.092C891.561 494.544 892.371 496.996 893.18 499.447" stroke="#DCEFF8" stroke-width="4" stroke-linecap="round" stroke-linejoin="round"/>
<path d="M1102.52 533.76C1101.79 533.476 1096.99 531.109 1096.6 532.014C1096.2 532.932 1095.87 533.889 1095.5 534.823C1095.43 535.011 1094.48 537.294 1095.09 536.69C1095.63 536.154 1096.87 536.874 1097.44 537.131C1098.77 537.729 1099.89 539.951 1100.02 541.369C1100.48 546.354 1090.74 543.128 1089.36 540.911" stroke="#DCEFF8" stroke-width="4" stroke-linecap="round" stroke-linejoin="round"/>
<path d="M1127.64 543.527C1126.91 543.243 1122.11 540.877 1121.71 541.781C1121.31 542.7 1120.98 543.656 1120.62 544.59C1120.55 544.779 1119.6 547.061 1120.21 546.458C1120.75 545.922 1121.98 546.642 1122.55 546.898C1123.88 547.497 1125 549.718 1125.14 551.136C1125.6 556.121 1115.85 552.896 1114.48 550.679" stroke="#DCEFF8" stroke-width="4" stroke-linecap="round" stroke-linejoin="round"/>
<path d="M1108.97 539.896C1107.94 542.554 1106.4 545.331 1106.26 548.193" stroke="#DCEFF8" stroke-width="4" stroke-linecap="round" stroke-linejoin="round"/>
<path d="M1103.43 543.456C1105.84 544.391 1108.24 545.327 1110.65 546.263" stroke="#DCEFF8" stroke-width="4" stroke-linecap="round" stroke-linejoin="round"/>
<g opacity="0.8">
<path d="M1782.43 85.959C1782.92 84.256 1783.59 82.721 1784.3 81.1012C1784.4 80.8874 1785.34 77.5549 1785.63 78.4103C1786.42 80.7831 1787.21 83.1559 1788 85.5287C1789.23 89.2188 1790.47 92.909 1791.7 96.5991C1792.07 97.7144 1792.94 99.2235 1792.44 100.242" stroke="#DAECF4" stroke-width="4" stroke-linecap="round" stroke-linejoin="round"/>
<path d="M1798.71 76.2396C1798.63 75.9504 1797.66 73.0967 1798.74 73.1601C1801.47 73.3198 1802.36 81.623 1802.56 83.2384C1802.95 86.4597 1803.08 90.1078 1801.89 93.1991C1801.17 95.0463 1802.68 92.6681 1804.1 92.2222C1806.66 91.4152 1812.26 93.4897 1814.19 91.2904C1814.69 90.7201 1814.29 89.3981 1814.29 88.6634" stroke="#DAECF4" stroke-width="4" stroke-linecap="round" stroke-linejoin="round"/>
<path d="M1813.85 67.3772C1814.17 68.496 1815.25 75.9231 1816.76 76.5669C1817.56 76.9068 1818.09 73.9615 1818.13 73.6776C1818.22 72.9266 1817.73 69.0106 1818.46 71.1854C1819.46 74.1907 1820.25 77.1956 1822.08 79.8193C1823.02 81.1612 1824.39 82.2304 1825.43 83.5167" stroke="#DAECF4" stroke-width="4" stroke-linecap="round" stroke-linejoin="round"/>
<path d="M1828.28 62.0872C1828.26 63.167 1827.78 65.831 1828.54 66.8173C1828.64 66.9494 1830.83 65.3491 1831 65.253C1833.76 63.7171 1834.65 63.8767 1836.36 66.6402C1837.34 68.2261 1841.3 73.844 1839.37 75.6632C1837.11 77.8014 1833.92 77.6338 1831.29 76.8008" stroke="#DAECF4" stroke-width="4" stroke-linecap="round" stroke-linejoin="round"/>
<path d="M1827.28 61.9444C1830.28 60.4359 1833.31 59.2575 1835.57 56.7988" stroke="#DAECF4" stroke-width="4" stroke-linecap="round" stroke-linejoin="round"/>
<path d="M1779.58 105.96C1780.63 109.103 1781.68 112.246 1782.73 115.388" stroke="#DAECF4" stroke-width="4" stroke-linecap="round" stroke-linejoin="round"/>
<path d="M1778.15 113.104C1781.06 110.864 1783.96 108.625 1786.87 106.386" stroke="#DAECF4" stroke-width="4" stroke-linecap="round" stroke-linejoin="round"/>
<path d="M1808.44 102.522C1808.69 101.745 1809.31 98.2723 1810.51 98.1007C1811.85 97.9089 1812.23 101.847 1812.19 102.592C1812.18 102.816 1811.51 105.567 1811.56 105.553C1812.37 105.343 1812.9 103.947 1813.82 103.584C1817.4 102.168 1824.32 108.466 1822.15 112.129C1819.96 115.816 1812.73 118.63 1808.73 117.665" stroke="#DAECF4" stroke-width="4" stroke-linecap="round" stroke-linejoin="round"/>
<path d="M1825.55 95.9448C1829.77 99.4769 1834.02 102.904 1838.36 106.273" stroke="#DAECF4" stroke-width="4" stroke-linecap="round" stroke-linejoin="round"/>
<path d="M1826 96.1693C1825.27 93.645 1827.71 92.012 1830.2 93.1855C1831.99 94.0276 1830.46 98.4495 1830.34 99.7119C1830.12 102.14 1830.58 106.006 1832.19 107.997C1834.82 111.244 1840.37 106.707 1842.4 104.924" stroke="#DAECF4" stroke-width="4" stroke-linecap="round" stroke-linejoin="round"/>
<path d="M1837.67 86.442C1839.18 85.3898 1840.8 84.5452 1842.32 83.5356C1843.02 83.0704 1842.88 83.6744 1842.98 84.3815C1843.53 88.2484 1844.71 92.6919 1846.57 96.1342C1847.35 97.5718 1848.34 99.086 1849.64 100.098" stroke="#DAECF4" stroke-width="4" stroke-linecap="round" stroke-linejoin="round"/>
<path d="M1842.25 92.9759C1844.09 91.9774 1846.1 91.0442 1847.68 89.6408" stroke="#DAECF4" stroke-width="4" stroke-linecap="round" stroke-linejoin="round"/>
<path d="M1836.07 127.795C1845.14 119.458 1854.09 111.807 1864.29 104.94" stroke="#DAECF4" stroke-width="4" stroke-linecap="round" stroke-linejoin="round"/>
</g>
<g opacity="0.7">
<path d="M297.544 473.026C299.309 472.87 300.98 472.937 302.749 473.023C302.983 473.034 306.432 472.716 305.737 473.29C303.808 474.883 301.879 476.476 299.951 478.069C296.951 480.546 293.951 483.023 290.952 485.5C290.045 486.249 288.953 487.609 287.82 487.501" stroke="#DAECF4" stroke-width="4" stroke-linecap="round" stroke-linejoin="round"/>
<path d="M312.473 484.718C312.714 484.538 315.026 482.603 315.357 483.638C316.191 486.242 308.763 490.057 307.327 490.823C304.464 492.35 301.108 493.788 297.792 493.782C295.811 493.779 298.576 494.337 299.501 495.496C301.175 497.594 301.254 503.561 304.001 504.572C304.714 504.834 305.804 503.986 306.489 503.721" stroke="#DAECF4" stroke-width="4" stroke-linecap="round" stroke-linejoin="round"/>
<path d="M326.192 495.653C325.261 496.348 318.721 500.03 318.665 501.674C318.636 502.542 321.574 501.976 321.852 501.907C322.587 501.725 326.065 499.86 324.297 501.32C321.854 503.337 319.335 505.155 317.545 507.807C316.63 509.163 316.127 510.829 315.302 512.264" stroke="#DAECF4" stroke-width="4" stroke-linecap="round" stroke-linejoin="round"/>
<path d="M336.321 507.209C335.305 507.576 332.646 508.086 331.999 509.15C331.913 509.293 334.196 510.764 334.347 510.89C336.771 512.904 336.944 513.797 334.982 516.387C333.855 517.874 330.038 523.587 327.647 522.444C324.837 521.101 323.844 518.063 323.675 515.309" stroke="#DAECF4" stroke-width="4" stroke-linecap="round" stroke-linejoin="round"/>
<path d="M336.092 506.225C338.578 508.478 340.77 510.885 343.875 512.102" stroke="#DAECF4" stroke-width="4" stroke-linecap="round" stroke-linejoin="round"/>
<path d="M277.857 477.565C275.303 479.675 272.749 481.785 270.194 483.894" stroke="#DAECF4" stroke-width="4" stroke-linecap="round" stroke-linejoin="round"/>
<path d="M270.68 478.806C273.814 480.71 276.949 482.613 280.083 484.517" stroke="#DAECF4" stroke-width="4" stroke-linecap="round" stroke-linejoin="round"/>
<path d="M291.452 503.25C292.267 503.205 295.731 502.534 296.322 503.59C296.984 504.771 293.449 506.55 292.738 506.778C292.525 506.846 289.718 507.215 289.751 507.259C290.235 507.932 291.73 507.926 292.399 508.653C295.011 511.489 291.624 520.209 287.424 519.499C283.197 518.784 277.97 513.054 277.429 508.972" stroke="#DAECF4" stroke-width="4" stroke-linecap="round" stroke-linejoin="round"/>
<path d="M303.748 516.848C301.971 522.054 300.305 527.257 298.722 532.514" stroke="#DAECF4" stroke-width="4" stroke-linecap="round" stroke-linejoin="round"/>
<path d="M303.701 517.348C305.795 515.761 308.196 517.449 307.999 520.197C307.857 522.169 303.179 522.329 301.96 522.676C299.615 523.343 296.173 525.162 294.896 527.384C292.814 531.006 299.043 534.548 301.437 535.8" stroke="#DAECF4" stroke-width="4" stroke-linecap="round" stroke-linejoin="round"/>
<path d="M316.979 524.741C318.503 525.768 319.874 526.974 321.364 528.03C322.05 528.516 321.435 528.6 320.811 528.948C317.4 530.85 313.682 533.556 311.14 536.532C310.079 537.775 309.021 539.24 308.545 540.819" stroke="#DAECF4" stroke-width="4" stroke-linecap="round" stroke-linejoin="round"/>
<path d="M312.531 531.363C314.124 532.718 315.718 534.256 317.595 535.223" stroke="#DAECF4" stroke-width="4" stroke-linecap="round" stroke-linejoin="round"/>
<path d="M277.82 538.129C288.863 543.591 299.224 549.19 309.299 556.225" stroke="#DAECF4" stroke-width="4" stroke-linecap="round" stroke-linejoin="round"/>
</g>
<path d="M312.561 363.289C316.488 361.867 322.044 361.185 324.995 357.998C325.231 357.743 325.419 356.698 325.419 357.045C325.419 358.183 325.419 359.32 325.419 360.458C325.419 363.809 325.419 367.161 325.419 370.512C325.419 371.79 325.835 373.826 324.943 374.719" stroke="#D4E1E6" stroke-width="4" stroke-linecap="round" stroke-linejoin="round"/>
<path d="M321.133 368.051C323.701 366.033 326.506 364.881 329.705 364.241" stroke="#D4E1E6" stroke-width="4" stroke-linecap="round" stroke-linejoin="round"/>
<path d="M1230.14 575.931C1234.09 577.272 1238.86 580.209 1243.15 579.562C1243.5 579.511 1244.3 578.811 1244.08 579.083C1243.37 579.971 1242.66 580.86 1241.95 581.748C1239.86 584.366 1237.76 586.984 1235.67 589.601C1234.87 590.599 1233.93 592.45 1232.67 592.59" stroke="#DCEFF8" stroke-width="4" stroke-linecap="round" stroke-linejoin="round"/>
<path d="M1233.86 585.003C1237.13 585.03 1240.04 585.882 1242.93 587.379" stroke="#DCEFF8" stroke-width="4" stroke-linecap="round" stroke-linejoin="round"/>
<path d="M1683.08 190.158C1686.71 188.084 1692.06 186.459 1694.43 182.814C1694.61 182.522 1694.62 181.46 1694.68 181.803C1694.87 182.924 1695.07 184.044 1695.26 185.165C1695.84 188.467 1696.41 191.769 1696.99 195.07C1697.21 196.329 1697.97 198.264 1697.24 199.296" stroke="#DCEFF8" stroke-width="4" stroke-linecap="round" stroke-linejoin="round"/>
<path d="M1692.34 193.38C1694.53 190.952 1697.09 189.336 1700.14 188.158" stroke="#DCEFF8" stroke-width="4" stroke-linecap="round" stroke-linejoin="round"/>
<path d="M1889.47 273.37C1889.68 272.027 1890.69 267.995 1891.17 271.722C1891.53 274.572 1890.95 277.488 1889.8 280.152C1888.48 283.19 1886.45 286.229 1884.4 288.935C1882.96 290.846 1883.14 289.433 1883.19 288.109C1883.22 287.198 1882.91 285.64 1883.89 285.024C1885.51 284.006 1887.61 286.213 1888.52 287.103C1889.61 288.178 1891.69 291.574 1893.35 291.957C1894.04 292.118 1894.51 290.419 1894.68 290.017" stroke="#DCEFF8" stroke-width="4" stroke-linecap="round" stroke-linejoin="round"/>
<path d="M1898.89 272.349C1898.85 273.395 1897.2 279.756 1900.17 278.379C1901.34 277.837 1902.61 277.108 1903.37 276.135C1903.99 275.346 1904.23 272.568 1904.61 273.469C1905.34 275.24 1904.46 278.54 1904.39 280.413C1904.32 282.428 1904.25 284.443 1904.19 286.458" stroke="#DCEFF8" stroke-width="4" stroke-linecap="round" stroke-linejoin="round"/>
<path d="M887.057 137.44C888.393 137.391 892.455 137.541 888.916 138.602C886.21 139.414 883.294 139.424 880.534 138.907C877.387 138.317 874.129 137.113 871.192 135.844C869.118 134.948 870.516 134.856 871.805 134.663C872.693 134.531 874.157 134 874.905 134.727C876.14 135.928 874.324 138.104 873.599 139.031C872.725 140.148 869.752 142.513 869.636 143.995C869.587 144.618 871.305 144.717 871.721 144.79" stroke="#DCEFF8" stroke-width="4" stroke-linecap="round" stroke-linejoin="round"/>
<path d="M889.497 145.293C888.477 145.446 882.057 145.145 883.847 147.437C884.553 148.34 885.454 149.295 886.515 149.777C887.375 150.169 890.105 149.886 889.289 150.363C887.686 151.3 884.35 151.119 882.525 151.392C880.561 151.686 878.597 151.979 876.634 152.273" stroke="#DCEFF8" stroke-width="4" stroke-linecap="round" stroke-linejoin="round"/>
<path d="M144.868 427.395C145.017 426.067 145.765 422.071 146.292 425.728C146.695 428.525 146.274 431.411 145.354 434.064C144.305 437.089 142.632 440.133 140.943 442.851C139.751 444.769 139.867 443.373 139.867 442.069C139.867 441.171 139.558 439.645 140.388 439.013C141.758 437.969 143.642 440.087 144.451 440.94C145.427 441.97 147.326 445.26 148.775 445.594C149.384 445.735 149.736 444.05 149.869 443.649" stroke="#DCEFF8" stroke-width="4" stroke-linecap="round" stroke-linejoin="round"/>
<path d="M152.994 426.145C152.994 427.176 151.748 433.481 154.279 432.049C155.277 431.485 156.354 430.735 156.988 429.757C157.503 428.964 157.627 426.223 157.978 427.1C158.668 428.824 157.995 432.096 157.995 433.942C157.995 435.927 157.995 437.913 157.995 439.898" stroke="#DCEFF8" stroke-width="4" stroke-linecap="round" stroke-linejoin="round"/>
<g opacity="0.8">
<path d="M80.2312 307.529C86.8888 324.746 90.0644 342.408 93.427 360.486C93.6204 361.525 95.7447 376.57 96.1662 376.354C97.5552 375.642 98.7887 373.85 99.9213 372.788C102.92 369.975 105.631 366.876 108.568 364C116.154 356.568 124.205 349.163 132.802 342.965" stroke="#DAECF4" stroke-width="3" stroke-linecap="round" stroke-linejoin="round"/>
<path d="M92.8965 360.712C98.4988 358.113 102.217 356.134 107.516 360.054C109.128 361.246 110.553 362.907 112.093 364.216" stroke="#DAECF4" stroke-width="3" stroke-linecap="round" stroke-linejoin="round"/>
<path d="M99.2875 345.259C100.235 346.33 101.699 348.829 103.104 349.394C104.035 349.769 103.962 347.973 104.358 347.427C104.993 346.552 103.954 345.902 103.341 345.209C102.798 344.595 102.354 343.724 103.041 344.949C103.778 346.263 104.929 347.36 105.928 348.489C106.868 349.552 107.738 350.769 108.938 351.535" stroke="#DAECF4" stroke-width="2" stroke-linecap="round" stroke-linejoin="round"/>
<path d="M107.713 338.75C106.846 339.265 106.165 339.856 105.396 340.485C104.652 341.093 103.974 340.935 104.844 341.919C105.345 342.485 106.565 343.41 106.769 344.174C106.841 344.445 106.46 344.124 106.427 343.986C106.342 343.634 106.748 343.368 106.978 343.183C109.586 341.083 112.377 342.967 113.847 345.406C115.008 347.33 111.297 349.653 109.748 349.243" stroke="#DAECF4" stroke-width="2" stroke-linecap="round" stroke-linejoin="round"/>
<path d="M109.331 334.166C110.118 335.054 111.044 336.586 112.07 337.241C112.435 337.474 114.007 335.888 113.515 335.332C112.908 334.646 112.323 333.931 111.69 333.269C110.876 332.417 110.353 333.262 109.685 333.853" stroke="#DAECF4" stroke-width="2" stroke-linecap="round" stroke-linejoin="round"/>
</g>
<g opacity="0.8">
<path d="M1933.3 362.879C1916.56 370.674 1899.15 375.024 1881.34 379.588C1880.32 379.851 1865.45 382.977 1865.69 383.383C1866.5 384.721 1868.37 385.832 1869.5 386.891C1872.51 389.694 1875.78 392.193 1878.85 394.93C1886.77 402.002 1894.7 409.539 1901.46 417.702" stroke="#DAECF4" stroke-width="3" stroke-linecap="round" stroke-linejoin="round"/>
<path d="M1881.08 379.073C1884.05 384.489 1886.27 388.067 1882.72 393.616C1881.63 395.304 1880.07 396.837 1878.87 398.461" stroke="#DAECF4" stroke-width="3" stroke-linecap="round" stroke-linejoin="round"/>
<path d="M1896.93 384.417C1895.92 385.434 1893.53 387.063 1893.06 388.502C1892.74 389.456 1894.53 389.263 1895.1 389.621C1896.02 390.196 1896.6 389.117 1897.25 388.459C1897.82 387.876 1898.66 387.374 1897.49 388.142C1896.23 388.965 1895.21 390.187 1894.15 391.259C1893.15 392.268 1892 393.217 1891.31 394.466" stroke="#DAECF4" stroke-width="2" stroke-linecap="round" stroke-linejoin="round"/>
<path d="M1903.98 392.388C1903.41 391.557 1902.78 390.917 1902.1 390.192C1901.44 389.491 1901.55 388.803 1900.63 389.737C1900.1 390.275 1899.26 391.554 1898.51 391.808C1898.24 391.899 1898.54 391.498 1898.67 391.455C1899.02 391.347 1899.31 391.734 1899.51 391.951C1901.78 394.413 1900.09 397.323 1897.75 398.954C1895.91 400.241 1893.35 396.694 1893.65 395.12" stroke="#DAECF4" stroke-width="2" stroke-linecap="round" stroke-linejoin="round"/>
<path d="M1908.67 393.696C1907.83 394.541 1906.37 395.567 1905.78 396.635C1905.57 397.015 1907.26 398.477 1907.78 397.949C1908.43 397.298 1909.1 396.666 1909.72 395.99C1910.51 395.121 1909.64 394.655 1909 394.028" stroke="#DAECF4" stroke-width="2" stroke-linecap="round" stroke-linejoin="round"/>
</g>
<path d="M348.873 138.946C350.874 136.21 353.976 132.026 355.975 129.099C356.753 127.96 359.283 125.124 357.944 125.458C356.992 125.697 356.166 130.688 355.975 131.486C354.42 137.982 354.244 144.658 354.244 151.299" stroke="#DCEFF8" stroke-width="4" stroke-linecap="round" stroke-linejoin="round"/>
<path d="M367.135 129.278C367.135 128.244 366.504 125.592 368.03 125.518C370.649 125.39 370.84 125.985 371.133 128.711C371.803 134.928 369.779 140.163 366.986 145.63C366.355 146.865 364.617 152.755 363.136 149.39C362.723 148.45 360.831 144.486 362.003 143.481C363.901 141.854 367.96 145.897 368.955 146.973C373.278 151.646 374.011 146.322 378.414 144.854" stroke="#DCEFF8" stroke-width="4" stroke-linecap="round" stroke-linejoin="round"/>
<path d="M789.35 319.314C788.541 316.022 787.331 310.956 786.375 307.543C786.003 306.215 785.458 302.454 784.854 303.694C784.424 304.577 787.715 308.419 788.204 309.078C792.179 314.445 797.178 318.873 802.265 323.144" stroke="#DCEFF8" stroke-width="4" stroke-linecap="round" stroke-linejoin="round"/>
<path d="M793.689 299.112C792.897 298.447 790.46 297.225 791.385 296.008C792.971 293.921 793.55 294.157 795.826 295.685C801.018 299.17 803.725 304.086 806.116 309.741C806.656 311.018 810.049 316.136 806.52 315.106C805.535 314.819 801.282 313.719 801.266 312.175C801.241 309.675 806.947 309.166 808.41 309.096C814.769 308.79 811.163 304.805 812.87 300.489" stroke="#DCEFF8" stroke-width="4" stroke-linecap="round" stroke-linejoin="round"/>
<path d="M1580.49 14.119C1582.15 17.0734 1584.67 21.6308 1586.5 24.663C1587.22 25.8433 1588.75 29.3207 1589 27.964C1589.18 26.9983 1584.98 24.1783 1584.33 23.6737C1579.06 19.5671 1573.06 16.6399 1567.02 13.8875" stroke="#D4E1E6" stroke-width="4" stroke-linecap="round" stroke-linejoin="round"/>
<path d="M1581.72 34.7451C1582.66 35.1735 1585.33 35.6981 1584.77 37.1179C1583.8 39.5541 1583.18 39.4813 1580.57 38.619C1574.64 36.6517 1570.71 32.6402 1566.9 27.8327C1566.03 26.7464 1561.39 22.7243 1565.07 22.7714C1566.1 22.7845 1570.49 22.7053 1570.92 24.1879C1571.61 26.5902 1566.25 28.6089 1564.86 29.0685C1558.81 31.066 1563.35 33.9393 1562.87 38.5551" stroke="#D4E1E6" stroke-width="4" stroke-linecap="round" stroke-linejoin="round"/>
<path d="M384.393 276.382C384.781 274.677 385.141 269.671 387.999 271.601C389.379 272.532 390.246 274.094 390.906 275.587C391.616 277.192 392.081 278.946 392.081 280.7C392.081 282.426 391.376 283.92 390.159 285.137" stroke="#D4E1E6" stroke-width="4" stroke-linecap="round" stroke-linejoin="round"/>
<path d="M396.351 267.626C395.547 266.635 394.863 266.772 393.694 266.772C392.972 266.772 391.587 266.516 391.024 267.009C390.207 267.724 390.7 269.189 390.538 270.141C390.325 271.395 390.383 272.476 390.574 273.712C390.827 275.36 391.759 278.052 393.528 278.683C395.018 279.215 396.858 279.407 398.392 278.98C400.382 278.425 401.638 276.346 402.9 274.863C404.029 273.538 405.499 272.312 406.388 270.829" stroke="#D4E1E6" stroke-width="4" stroke-linecap="round" stroke-linejoin="round"/>
<path d="M740.245 106.286C741.965 105.972 746.709 104.332 746.06 107.719C745.747 109.354 744.652 110.766 743.54 111.961C742.344 113.245 740.915 114.362 739.302 115.053C737.715 115.732 736.064 115.673 734.466 115.033" stroke="#DCEFF8" stroke-width="4" stroke-linecap="round" stroke-linejoin="round"/>
<path d="M753.003 113.833C753.597 112.703 753.203 112.128 752.743 111.054C752.459 110.39 752.148 109.017 751.474 108.693C750.495 108.223 749.342 109.253 748.403 109.479C747.167 109.776 746.196 110.256 745.134 110.917C743.719 111.799 741.612 113.715 741.727 115.59C741.824 117.169 742.372 118.936 743.369 120.178C744.663 121.789 747.068 122.125 748.928 122.702C750.591 123.218 752.296 124.087 754.009 124.321" stroke="#DCEFF8" stroke-width="4" stroke-linecap="round" stroke-linejoin="round"/>
<path d="M722.516 461.277C723.776 460.066 726.827 456.081 728.156 459.263C728.797 460.799 728.663 462.581 728.395 464.191C728.107 465.922 727.532 467.642 726.568 469.109C725.62 470.551 724.211 471.412 722.525 471.761" stroke="#DCEFF8" stroke-width="4" stroke-linecap="round" stroke-linejoin="round"/>
<path d="M737.319 460.529C737.191 459.26 736.545 458.998 735.568 458.356C734.965 457.959 733.947 456.985 733.207 457.088C732.131 457.236 731.738 458.732 731.08 459.438C730.213 460.368 729.668 461.304 729.148 462.442C728.455 463.958 727.755 466.719 728.886 468.218C729.839 469.482 731.271 470.653 732.788 471.138C734.756 471.768 736.947 470.72 738.817 470.174C740.488 469.686 742.39 469.469 743.947 468.719" stroke="#DCEFF8" stroke-width="4" stroke-linecap="round" stroke-linejoin="round"/>
<path d="M1497.03 260.19C1496.01 261.608 1493.72 266.077 1491.84 263.186C1490.93 261.79 1490.75 260.013 1490.72 258.381C1490.69 256.626 1490.95 254.83 1491.63 253.215C1492.31 251.626 1493.54 250.525 1495.13 249.879" stroke="#DCEFF8" stroke-width="4" stroke-linecap="round" stroke-linejoin="round"/>
<path d="M1482.6 263.586C1482.95 264.812 1483.64 264.953 1484.71 265.409C1485.38 265.691 1486.55 266.466 1487.26 266.232C1488.3 265.893 1488.41 264.351 1488.93 263.538C1489.62 262.467 1489.99 261.449 1490.29 260.236C1490.7 258.62 1490.9 255.778 1489.51 254.507C1488.35 253.435 1486.73 252.541 1485.15 252.336C1483.1 252.07 1481.13 253.494 1479.39 254.367C1477.84 255.147 1476.01 255.703 1474.61 256.721" stroke="#DCEFF8" stroke-width="4" stroke-linecap="round" stroke-linejoin="round"/>
<path d="M496.828 471.781C497.149 477.392 497.554 482.026 501.1 486.576C503.081 489.118 504.709 488.112 506.153 485.621C507.196 483.823 507.545 481.787 507.907 479.769C508.135 478.502 508.049 476.81 508.393 479.317C508.941 483.301 509.348 487.31 510.095 491.265C510.833 495.169 512.546 499.327 510.199 503.021C507.465 507.324 501.958 507.852 497.314 507.97C495.004 508.029 492.704 507.915 490.403 507.727C489.198 507.628 489.085 507.517 488.389 508.04" stroke="#DCEFF8" stroke-width="4" stroke-linecap="round" stroke-linejoin="round"/>
<path d="M512.145 471.468C513.419 470.52 516.261 469.449 517.927 470.374C519.676 471.346 517.279 474.362 516.833 475.428C516.639 475.892 515.514 479.749 516.434 479.89C517.604 480.07 518.934 479.908 520.115 479.908C521.327 479.908 522.25 479.283 523.397 479.283" stroke="#DCEFF8" stroke-width="4" stroke-linecap="round" stroke-linejoin="round"/>
<path d="M577.759 55.6463C573.537 59.356 570.137 62.5304 568.737 68.1269C567.956 71.2529 569.752 71.916 572.603 71.5186C574.662 71.2317 576.48 70.2526 578.293 69.2943C579.431 68.6927 580.711 67.5829 578.948 69.3991C576.148 72.2851 573.241 75.076 570.587 78.1007C567.966 81.0876 565.747 84.9991 561.391 85.4264C556.318 85.924 552.509 81.9117 549.554 78.327C548.084 76.5437 546.757 74.662 545.487 72.7335C544.822 71.7235 544.84 71.5661 544 71.3395" stroke="#DCEFF8" stroke-width="4" stroke-linecap="round" stroke-linejoin="round"/>
<path d="M587.441 67.5176C588.973 67.937 591.568 69.5158 591.866 71.3982C592.178 73.3737 588.325 73.3449 587.211 73.65C586.726 73.783 582.995 75.2739 583.45 76.0852C584.029 77.1176 584.977 78.0649 585.705 78.9955C586.451 79.9501 587.513 80.2919 588.219 81.1954" stroke="#DCEFF8" stroke-width="4" stroke-linecap="round" stroke-linejoin="round"/>
<path d="M1393.48 19.6503C1396.96 23.1041 1399.93 25.8742 1404.88 26.7572C1407.65 27.2504 1408.12 25.6468 1407.61 23.1878C1407.23 21.4124 1406.27 19.8877 1405.33 18.3666C1404.74 17.4116 1403.69 16.364 1405.38 17.7898C1408.06 20.0555 1410.67 22.419 1413.46 24.5489C1416.22 26.6522 1419.76 28.3499 1420.39 32.1166C1421.13 36.5047 1417.86 40.0619 1414.92 42.8493C1413.45 44.2359 1411.89 45.5049 1410.29 46.7259C1409.45 47.3653 1409.31 47.3593 1409.16 48.1045" stroke="#DCEFF8" stroke-width="4" stroke-linecap="round" stroke-linejoin="round"/>
<path d="M1403.23 10.5074C1403.51 9.14816 1404.72 6.79398 1406.35 6.42211C1408.05 6.03183 1408.25 9.38817 1408.59 10.3397C1408.73 10.7544 1410.25 13.9137 1410.93 13.4688C1411.8 12.9027 1412.56 12.0208 1413.33 11.3311C1414.12 10.6237 1414.35 9.67925 1415.1 9.00967" stroke="#DCEFF8" stroke-width="4" stroke-linecap="round" stroke-linejoin="round"/>
<path d="M681 546.136C682.57 549.19 686.129 556.348 688.217 559.673C689.629 561.921 690.439 562.43 690.521 560.02C690.58 558.274 690.395 556.591 690.174 554.862C689.753 551.569 688.371 546.316 689.624 543.058C690.347 541.177 690.145 541.366 692.722 541.366C702.645 541.366 712.556 541.421 722.466 540.999" stroke="#DCEFF8" stroke-width="4" stroke-linecap="round" stroke-linejoin="round"/>
<path d="M702.684 551.691C702.05 549.997 700.433 547.091 702.794 546.029C703.73 545.607 704.439 547.231 704.439 547.947C704.439 548.57 704.068 548.738 703.711 549.182C703.006 550.058 702.427 551.107 701.845 552.068C701.289 552.987 700.467 553.849 700.07 554.851C699.775 555.597 699.746 556.414 699.758 557.205C699.773 558.158 700.209 559.703 701.364 559.76C702.934 559.836 703.977 559.845 704.647 558.245C705.523 556.154 705.562 553.798 703.737 552.277" stroke="#DCEFF8" stroke-width="4" stroke-linecap="round" stroke-linejoin="round"/>
<path d="M708.768 551.925C709.414 551.109 711.656 548.266 712.473 547.27C712.753 546.929 713.348 545.882 713.397 546.321C713.437 546.688 713.183 547.028 713.098 547.387C712.954 547.992 712.833 548.602 712.694 549.208C711.773 553.222 711.595 557.177 711.459 561.287" stroke="#DCEFF8" stroke-width="4" stroke-linecap="round" stroke-linejoin="round"/>
<path d="M1665.58 488.3C1665.14 491.706 1664.02 499.62 1663.85 503.543C1663.74 506.195 1664.12 507.073 1665.56 505.134C1666.59 503.728 1667.39 502.238 1668.19 500.687C1669.71 497.735 1671.55 492.623 1674.43 490.649C1676.09 489.508 1675.81 489.55 1677.94 491.01C1686.11 496.631 1694.25 502.291 1702.66 507.558" stroke="#DCEFF8" stroke-width="4" stroke-linecap="round" stroke-linejoin="round"/>
<path d="M1680.3 505.161C1680.73 503.406 1681.05 500.096 1683.6 500.558C1684.61 500.741 1684.27 502.481 1683.86 503.07C1683.51 503.584 1683.11 503.512 1682.56 503.675C1681.49 503.998 1680.42 504.535 1679.39 504.997C1678.41 505.439 1677.25 505.683 1676.35 506.284C1675.69 506.732 1675.2 507.388 1674.76 508.047C1674.23 508.841 1673.72 510.362 1674.64 511.062C1675.89 512.015 1676.74 512.613 1678.2 511.674C1680.11 510.448 1681.48 508.528 1680.83 506.24" stroke="#DCEFF8" stroke-width="4" stroke-linecap="round" stroke-linejoin="round"/>
<path d="M1685.18 508.802C1686.17 508.495 1689.63 507.423 1690.87 507.065C1691.29 506.943 1692.38 506.417 1692.17 506.806C1691.99 507.132 1691.59 507.268 1691.32 507.515C1690.86 507.933 1690.41 508.367 1689.95 508.787C1686.92 511.573 1684.53 514.731 1682.09 518.041" stroke="#DCEFF8" stroke-width="4" stroke-linecap="round" stroke-linejoin="round"/>
<path d="M351.786 211.657C352.817 211.041 360.2 207.458 359.477 206.131C358.742 204.782 357.896 203.484 357.108 202.166C356.949 201.9 355.079 198.607 355.237 199.91C355.377 201.068 353.341 201.887 352.496 202.333C350.522 203.376 346.78 202.642 344.941 201.467C338.476 197.337 351.548 188.587 355.526 189.006" stroke="#DCEFF8" stroke-width="4" stroke-linecap="round" stroke-linejoin="round"/>
<path d="M316.337 232.838C317.368 232.222 324.751 228.64 324.028 227.312C323.293 225.963 322.446 224.665 321.659 223.347C321.5 223.081 319.63 219.788 319.787 221.092C319.927 222.249 317.892 223.068 317.047 223.514C315.073 224.557 311.331 223.823 309.492 222.648C303.027 218.518 316.099 209.768 320.077 210.187" stroke="#DCEFF8" stroke-width="4" stroke-linecap="round" stroke-linejoin="round"/>
<path d="M338.299 213.678C336.058 209.927 334.142 205.46 330.813 202.596" stroke="#DCEFF8" stroke-width="4" stroke-linecap="round" stroke-linejoin="round"/>
<path d="M339.207 203.629C335.811 205.658 332.415 207.688 329.018 209.717" stroke="#DCEFF8" stroke-width="4" stroke-linecap="round" stroke-linejoin="round"/>
<path d="M845.077 63.8037C845.808 64.0878 850.611 66.4544 851.006 65.5498C851.406 64.6311 851.735 63.6749 852.098 62.7408C852.171 62.5525 853.118 60.2696 852.51 60.8732C851.97 61.409 850.732 60.6891 850.164 60.4329C848.835 59.8341 847.713 57.6129 847.582 56.1948C847.118 51.2098 856.863 54.4354 858.242 56.6521" stroke="#DCEFF8" stroke-width="4" stroke-linecap="round" stroke-linejoin="round"/>
<path d="M819.962 54.0361C820.692 54.3202 825.496 56.6868 825.89 55.7823C826.291 54.8636 826.619 53.9073 826.983 52.9732C827.056 52.785 828.002 50.5021 827.394 51.1056C826.855 51.6414 825.617 50.9215 825.048 50.6653C823.72 50.0666 822.598 47.8454 822.466 46.4273C822.003 41.4423 831.748 44.6678 833.126 46.8845" stroke="#DCEFF8" stroke-width="4" stroke-linecap="round" stroke-linejoin="round"/>
<path d="M838.631 57.667C839.665 55.0098 841.197 52.2328 841.338 49.3704" stroke="#DCEFF8" stroke-width="4" stroke-linecap="round" stroke-linejoin="round"/>
<path d="M844.17 54.1079C841.764 53.1721 839.357 52.2363 836.951 51.3005" stroke="#DCEFF8" stroke-width="4" stroke-linecap="round" stroke-linejoin="round"/>
<g opacity="0.8">
<path d="M165.17 511.604C164.68 513.307 164.015 514.842 163.299 516.462C163.204 516.676 162.259 520.009 161.974 519.153C161.182 516.78 160.39 514.408 159.599 512.035C158.367 508.345 157.136 504.655 155.905 500.964C155.532 499.849 154.657 498.34 155.165 497.322" stroke="#DAECF4" stroke-width="4" stroke-linecap="round" stroke-linejoin="round"/>
<path d="M148.888 521.324C148.97 521.613 149.942 524.467 148.858 524.403C146.128 524.244 145.243 515.941 145.045 514.325C144.651 511.104 144.518 507.456 145.716 504.364C146.432 502.517 144.917 504.895 143.502 505.341C140.942 506.148 135.347 504.074 133.415 506.273C132.914 506.843 133.313 508.165 133.313 508.9" stroke="#DAECF4" stroke-width="4" stroke-linecap="round" stroke-linejoin="round"/>
<path d="M133.748 530.186C133.435 529.067 132.354 521.64 130.84 520.997C130.041 520.657 129.512 523.602 129.476 523.886C129.382 524.637 129.869 528.553 129.144 526.378C128.141 523.373 127.352 520.368 125.522 517.744C124.586 516.402 123.213 515.333 122.171 514.047" stroke="#DAECF4" stroke-width="4" stroke-linecap="round" stroke-linejoin="round"/>
<path d="M119.321 535.476C119.345 534.396 119.826 531.733 119.066 530.746C118.964 530.614 116.77 532.214 116.598 532.31C113.846 533.846 112.95 533.687 111.24 530.923C110.259 529.337 106.303 523.719 108.229 521.9C110.494 519.762 113.686 519.93 116.316 520.763" stroke="#DAECF4" stroke-width="4" stroke-linecap="round" stroke-linejoin="round"/>
<path d="M120.32 535.619C117.324 537.128 114.288 538.306 112.036 540.765" stroke="#DAECF4" stroke-width="4" stroke-linecap="round" stroke-linejoin="round"/>
<path d="M168.021 491.603C166.973 488.46 165.924 485.318 164.876 482.175" stroke="#DAECF4" stroke-width="4" stroke-linecap="round" stroke-linejoin="round"/>
<path d="M169.448 484.46C166.544 486.699 163.64 488.938 160.736 491.177" stroke="#DAECF4" stroke-width="4" stroke-linecap="round" stroke-linejoin="round"/>
<path d="M139.165 495.041C138.914 495.818 138.293 499.291 137.095 499.463C135.756 499.655 135.368 495.716 135.411 494.971C135.424 494.748 136.09 491.997 136.037 492.011C135.235 492.22 134.702 493.617 133.784 493.98C130.198 495.396 123.282 489.097 125.456 485.435C127.644 481.748 134.871 478.933 138.875 479.898" stroke="#DAECF4" stroke-width="4" stroke-linecap="round" stroke-linejoin="round"/>
<path d="M122.053 501.619C117.836 498.087 113.581 494.659 109.246 491.29" stroke="#DAECF4" stroke-width="4" stroke-linecap="round" stroke-linejoin="round"/>
<path d="M121.602 501.394C122.329 503.918 119.89 505.551 117.398 504.378C115.609 503.536 117.143 499.114 117.258 497.852C117.48 495.424 117.022 491.558 115.409 489.566C112.779 486.32 107.232 490.856 105.202 492.639" stroke="#DAECF4" stroke-width="4" stroke-linecap="round" stroke-linejoin="round"/>
<path d="M109.927 511.121C108.42 512.174 106.801 513.018 105.28 514.028C104.579 514.493 104.722 513.889 104.622 513.182C104.076 509.315 102.889 504.872 101.027 501.429C100.25 499.992 99.2639 498.478 97.9614 497.465" stroke="#DAECF4" stroke-width="4" stroke-linecap="round" stroke-linejoin="round"/>
<path d="M105.349 504.588C103.512 505.586 101.503 506.519 99.9249 507.923" stroke="#DAECF4" stroke-width="4" stroke-linecap="round" stroke-linejoin="round"/>
<path d="M111.531 469.768C102.459 478.105 93.5068 485.756 83.3162 492.624" stroke="#DAECF4" stroke-width="4" stroke-linecap="round" stroke-linejoin="round"/>
</g>
<g opacity="0.7">
<path d="M1650.06 124.538C1648.29 124.694 1646.62 124.626 1644.85 124.54C1644.62 124.529 1641.17 124.848 1641.86 124.273C1643.79 122.68 1645.72 121.088 1647.65 119.495C1650.65 117.018 1653.65 114.541 1656.65 112.064C1657.56 111.315 1658.65 109.954 1659.78 110.063" stroke="#DAECF4" stroke-width="4" stroke-linecap="round" stroke-linejoin="round"/>
<path d="M1635.13 112.846C1634.89 113.026 1632.58 114.96 1632.24 113.925C1631.41 111.321 1638.84 107.506 1640.27 106.74C1643.14 105.213 1646.49 103.776 1649.81 103.781C1651.79 103.785 1649.03 103.226 1648.1 102.067C1646.43 99.9696 1646.35 94.0022 1643.6 92.9918C1642.89 92.7298 1641.8 93.5773 1641.11 93.842" stroke="#DAECF4" stroke-width="4" stroke-linecap="round" stroke-linejoin="round"/>
<path d="M1621.41 101.91C1622.34 101.216 1628.88 97.5334 1628.94 95.8894C1628.97 95.0215 1626.03 95.5879 1625.75 95.6567C1625.01 95.8387 1621.54 97.7034 1623.3 96.2436C1625.75 94.2261 1628.27 92.4082 1630.06 89.7566C1630.97 88.4004 1631.47 86.7349 1632.3 85.2998" stroke="#DAECF4" stroke-width="4" stroke-linecap="round" stroke-linejoin="round"/>
<path d="M1611.28 90.3542C1612.3 89.9876 1614.96 89.4778 1615.6 88.4132C1615.69 88.2707 1613.41 86.7999 1613.25 86.6739C1610.83 84.6592 1610.66 83.7665 1612.62 81.176C1613.75 79.6896 1617.56 73.9765 1619.95 75.1191C1622.76 76.462 1623.76 79.501 1623.93 82.2546" stroke="#DAECF4" stroke-width="4" stroke-linecap="round" stroke-linejoin="round"/>
<path d="M1611.51 91.3385C1609.02 89.0857 1606.83 86.6782 1603.72 85.4618" stroke="#DAECF4" stroke-width="4" stroke-linecap="round" stroke-linejoin="round"/>
<path d="M1669.74 119.998C1672.3 117.888 1674.85 115.779 1677.41 113.669" stroke="#DAECF4" stroke-width="4" stroke-linecap="round" stroke-linejoin="round"/>
<path d="M1676.92 118.757C1673.79 116.854 1670.65 114.95 1667.52 113.047" stroke="#DAECF4" stroke-width="4" stroke-linecap="round" stroke-linejoin="round"/>
<path d="M1656.15 94.3135C1655.33 94.3586 1651.87 95.0297 1651.28 93.9737C1650.62 92.7929 1654.15 91.0133 1654.86 90.7858C1655.08 90.7176 1657.88 90.3488 1657.85 90.3042C1657.37 89.6314 1655.87 89.637 1655.2 88.9107C1652.59 86.0745 1655.98 77.3549 1660.18 78.0648C1664.4 78.7793 1669.63 84.5091 1670.17 88.5916" stroke="#DAECF4" stroke-width="4" stroke-linecap="round" stroke-linejoin="round"/>
<path d="M1643.85 80.7153C1645.63 75.5098 1647.3 70.306 1648.88 65.0494" stroke="#DAECF4" stroke-width="4" stroke-linecap="round" stroke-linejoin="round"/>
<path d="M1643.9 80.2152C1641.81 81.8021 1639.41 80.1141 1639.6 77.3666C1639.74 75.3949 1644.42 75.234 1645.64 74.8874C1647.99 74.2208 1651.43 72.4015 1652.71 70.1794C1654.79 66.5575 1648.56 63.0155 1646.16 61.7631" stroke="#DAECF4" stroke-width="4" stroke-linecap="round" stroke-linejoin="round"/>
<path d="M1630.62 72.8229C1629.1 71.7956 1627.73 70.5892 1626.24 69.5337C1625.55 69.0473 1626.17 68.9636 1626.79 68.6158C1630.2 66.7139 1633.92 64.0072 1636.46 61.0313C1637.52 59.7885 1638.58 58.3236 1639.06 56.744" stroke="#DAECF4" stroke-width="4" stroke-linecap="round" stroke-linejoin="round"/>
<path d="M1635.07 66.2003C1633.48 64.8459 1631.88 63.3074 1630.01 62.3406" stroke="#DAECF4" stroke-width="4" stroke-linecap="round" stroke-linejoin="round"/>
<path d="M1669.78 59.4349C1658.74 53.972 1648.38 48.3739 1638.3 41.3385" stroke="#DAECF4" stroke-width="4" stroke-linecap="round" stroke-linejoin="round"/>
</g>
<path d="M1635.04 234.274C1631.11 235.696 1625.56 236.379 1622.61 239.566C1622.37 239.821 1622.18 240.866 1622.18 240.518C1622.18 239.381 1622.18 238.243 1622.18 237.105C1622.18 233.754 1622.18 230.403 1622.18 227.052C1622.18 225.774 1621.77 223.738 1622.66 222.845" stroke="#D4E1E6" stroke-width="4" stroke-linecap="round" stroke-linejoin="round"/>
<path d="M1626.47 229.512C1623.9 231.531 1621.1 232.682 1617.9 233.322" stroke="#D4E1E6" stroke-width="4" stroke-linecap="round" stroke-linejoin="round"/>
<path d="M717.464 21.6327C713.508 20.2911 708.742 17.3545 704.447 18.0012C704.104 18.0529 703.305 18.7522 703.522 18.4808C704.232 17.5922 704.943 16.7036 705.653 15.815C707.746 13.1974 709.838 10.5798 711.931 7.96215C712.729 6.96409 713.675 5.11359 714.929 4.97372" stroke="#DCEFF8" stroke-width="4" stroke-linecap="round" stroke-linejoin="round"/>
<path d="M713.742 12.5608C710.476 12.5333 707.566 11.6818 704.668 10.184" stroke="#DCEFF8" stroke-width="4" stroke-linecap="round" stroke-linejoin="round"/>
<path d="M264.519 407.405C260.894 409.48 255.537 411.104 253.175 414.75C252.987 415.041 252.981 416.103 252.922 415.761C252.727 414.64 252.532 413.519 252.337 412.398C251.762 409.097 251.188 405.795 250.614 402.493C250.395 401.234 249.635 399.3 250.362 398.267" stroke="#DCEFF8" stroke-width="4" stroke-linecap="round" stroke-linejoin="round"/>
<path d="M255.257 404.183C253.073 406.612 250.507 408.227 247.465 409.406" stroke="#DCEFF8" stroke-width="4" stroke-linecap="round" stroke-linejoin="round"/>
<path d="M58.1361 324.193C57.9178 325.537 56.9164 329.569 56.435 325.841C56.0669 322.991 56.6521 320.075 57.8054 317.411C59.1205 314.373 61.1564 311.335 63.1998 308.628C64.6427 306.718 64.4604 308.131 64.4153 309.454C64.3843 310.365 64.6874 311.924 63.7085 312.54C62.0906 313.558 59.9896 311.351 59.0853 310.46C57.9941 309.386 55.9161 305.989 54.2557 305.606C53.5576 305.445 53.0937 307.144 52.9258 307.547" stroke="#DCEFF8" stroke-width="4" stroke-linecap="round" stroke-linejoin="round"/>
<path d="M48.7124 325.215C48.748 324.169 50.4042 317.808 47.4334 319.184C46.2629 319.726 44.9932 320.455 44.2276 321.428C43.6066 322.217 43.3682 324.995 42.9934 324.094C42.2571 322.324 43.146 319.024 43.2098 317.15C43.2785 315.136 43.3471 313.121 43.4157 311.106" stroke="#DCEFF8" stroke-width="4" stroke-linecap="round" stroke-linejoin="round"/>
<path d="M1060.54 460.123C1059.21 460.172 1055.15 460.023 1058.69 458.961C1061.39 458.15 1064.31 458.139 1067.07 458.656C1070.21 459.247 1073.47 460.451 1076.41 461.72C1078.48 462.616 1077.09 462.707 1075.8 462.9C1074.91 463.033 1073.44 463.563 1072.7 462.837C1071.46 461.636 1073.28 459.459 1074 458.533C1074.88 457.415 1077.85 455.051 1077.97 453.568C1078.01 452.945 1076.3 452.847 1075.88 452.774" stroke="#DCEFF8" stroke-width="4" stroke-linecap="round" stroke-linejoin="round"/>
<path d="M1058.11 452.27C1059.12 452.118 1065.54 452.418 1063.75 450.127C1063.05 449.224 1062.15 448.269 1061.09 447.786C1060.23 447.395 1057.5 447.677 1058.31 447.2C1059.92 446.263 1063.25 446.444 1065.08 446.171C1067.04 445.878 1069 445.584 1070.97 445.291" stroke="#DCEFF8" stroke-width="4" stroke-linecap="round" stroke-linejoin="round"/>
<path d="M1802.73 170.168C1802.58 171.497 1801.84 175.492 1801.31 171.835C1800.91 169.038 1801.33 166.153 1802.25 163.5C1803.3 160.475 1804.97 157.43 1806.66 154.713C1807.85 152.794 1807.73 154.19 1807.73 155.494C1807.73 156.392 1808.04 157.919 1807.21 158.551C1805.84 159.595 1803.96 157.476 1803.15 156.623C1802.17 155.594 1800.28 152.304 1798.83 151.969C1798.22 151.829 1797.87 153.514 1797.73 153.914" stroke="#DCEFF8" stroke-width="4" stroke-linecap="round" stroke-linejoin="round"/>
<path d="M1794.61 171.418C1794.61 170.388 1795.85 164.082 1793.32 165.514C1792.33 166.078 1791.25 166.829 1790.61 167.806C1790.1 168.599 1789.97 171.341 1789.62 170.463C1788.93 168.739 1789.61 165.467 1789.61 163.621C1789.61 161.636 1789.61 159.651 1789.61 157.665" stroke="#DCEFF8" stroke-width="4" stroke-linecap="round" stroke-linejoin="round"/>
<g opacity="0.8">
<path d="M1867.37 290.034C1860.71 272.817 1857.54 255.156 1854.17 237.078C1853.98 236.038 1851.86 220.993 1851.44 221.209C1850.05 221.922 1848.81 223.713 1847.68 224.776C1844.68 227.588 1841.97 230.687 1839.03 233.564C1831.45 240.995 1823.4 248.4 1814.8 254.598" stroke="#DAECF4" stroke-width="3" stroke-linecap="round" stroke-linejoin="round"/>
<path d="M1854.71 236.851C1849.1 239.451 1845.38 241.429 1840.09 237.51C1838.47 236.318 1837.05 234.657 1835.51 233.348" stroke="#DAECF4" stroke-width="3" stroke-linecap="round" stroke-linejoin="round"/>
<path d="M1848.31 252.305C1847.37 251.234 1845.9 248.735 1844.5 248.169C1843.57 247.794 1843.64 249.591 1843.24 250.137C1842.61 251.012 1843.65 251.661 1844.26 252.354C1844.8 252.968 1845.25 253.84 1844.56 252.614C1843.82 251.301 1842.67 250.204 1841.67 249.074C1840.73 248.012 1839.86 246.795 1838.66 246.029" stroke="#DAECF4" stroke-width="2" stroke-linecap="round" stroke-linejoin="round"/>
<path d="M1839.89 258.814C1840.76 258.299 1841.44 257.708 1842.21 257.079C1842.95 256.47 1843.63 256.628 1842.76 255.645C1842.26 255.078 1841.04 254.154 1840.83 253.39C1840.76 253.118 1841.14 253.439 1841.17 253.578C1841.26 253.929 1840.85 254.195 1840.62 254.38C1838.02 256.48 1835.22 254.596 1833.75 252.158C1832.59 250.233 1836.3 247.911 1837.85 248.321" stroke="#DAECF4" stroke-width="2" stroke-linecap="round" stroke-linejoin="round"/>
<path d="M1838.27 263.398C1837.48 262.509 1836.56 260.977 1835.53 260.322C1835.17 260.089 1833.59 261.675 1834.09 262.232C1834.69 262.918 1835.28 263.632 1835.91 264.294C1836.73 265.146 1837.25 264.302 1837.92 263.711" stroke="#DAECF4" stroke-width="2" stroke-linecap="round" stroke-linejoin="round"/>
</g>
<g opacity="0.8">
<path d="M1145.92 168.393C1127.69 171.246 1109.75 170.602 1091.37 170.053C1090.32 170.021 1075.16 168.905 1075.29 169.362C1075.69 170.871 1077.18 172.456 1077.97 173.789C1080.09 177.316 1082.54 180.623 1084.73 184.103C1090.38 193.093 1095.91 202.532 1100.14 212.248" stroke="#DAECF4" stroke-width="3" stroke-linecap="round" stroke-linejoin="round"/>
<path d="M1091.27 169.485C1092.62 175.512 1093.76 179.565 1088.81 183.912C1087.3 185.234 1085.38 186.274 1083.77 187.501" stroke="#DAECF4" stroke-width="3" stroke-linecap="round" stroke-linejoin="round"/>
<path d="M1105.01 179.011C1103.76 179.71 1101.01 180.611 1100.16 181.863C1099.59 182.694 1101.37 183.003 1101.82 183.506C1102.54 184.312 1103.39 183.435 1104.2 182.983C1104.91 182.583 1105.86 182.333 1104.52 182.745C1103.08 183.187 1101.76 184.078 1100.44 184.815C1099.21 185.508 1097.83 186.1 1096.83 187.11" stroke="#DAECF4" stroke-width="2" stroke-linecap="round" stroke-linejoin="round"/>
<path d="M1109.58 188.626C1109.27 187.669 1108.83 186.877 1108.38 185.993C1107.94 185.137 1108.24 184.507 1107.1 185.149C1106.44 185.518 1105.27 186.514 1104.48 186.551C1104.2 186.564 1104.6 186.261 1104.74 186.257C1105.1 186.249 1105.28 186.702 1105.41 186.966C1106.91 189.96 1104.47 192.288 1101.78 193.208C1099.65 193.933 1098.17 189.815 1098.9 188.387" stroke="#DAECF4" stroke-width="2" stroke-linecap="round" stroke-linejoin="round"/>
<path d="M1113.72 191.18C1112.68 191.759 1110.99 192.34 1110.13 193.203C1109.83 193.511 1111.04 195.384 1111.69 195.021C1112.49 194.573 1113.31 194.153 1114.09 193.675C1115.1 193.06 1114.39 192.37 1113.95 191.592" stroke="#DAECF4" stroke-width="2" stroke-linecap="round" stroke-linejoin="round"/>
</g>
<g opacity="0.8">
<path d="M14.3025 234.684C31.0354 226.89 48.4447 222.54 66.2574 217.975C67.2817 217.713 82.1508 214.587 81.907 214.181C81.1033 212.843 79.2334 211.732 78.0976 210.673C75.0907 207.869 71.8171 205.371 68.7505 202.633C60.8286 195.561 52.9014 188.024 46.1423 179.861" stroke="#DAECF4" stroke-width="3" stroke-linecap="round" stroke-linejoin="round"/>
<path d="M66.5195 218.49C63.5508 213.074 61.3282 209.497 64.8841 203.947C65.9658 202.259 67.5276 200.726 68.7306 199.103" stroke="#DAECF4" stroke-width="3" stroke-linecap="round" stroke-linejoin="round"/>
<path d="M50.6719 213.146C51.6771 212.129 54.0726 210.501 54.543 209.062C54.8548 208.107 53.0673 208.301 52.4961 207.942C51.5805 207.367 51.0017 208.447 50.3514 209.105C49.7751 209.688 48.9355 210.19 50.1121 209.421C51.3732 208.598 52.391 207.377 53.451 206.304C54.4483 205.295 55.6044 204.346 56.2885 203.097" stroke="#DAECF4" stroke-width="2" stroke-linecap="round" stroke-linejoin="round"/>
<path d="M43.6152 205.175C44.1873 206.006 44.8225 206.647 45.5014 207.371C46.1585 208.073 46.0463 208.76 46.9694 207.826C47.501 207.288 48.3415 206.01 49.0902 205.755C49.3564 205.665 49.0613 206.066 48.9254 206.108C48.5807 206.217 48.2882 205.83 48.0878 205.613C45.8183 203.151 47.5111 200.24 49.8458 198.61C51.6885 197.323 54.2541 200.87 53.9489 202.444" stroke="#DAECF4" stroke-width="2" stroke-linecap="round" stroke-linejoin="round"/>
<path d="M38.9323 203.867C39.7666 203.023 41.233 201.996 41.8178 200.929C42.026 200.549 40.3382 199.086 39.8162 199.614C39.1721 200.266 38.4985 200.898 37.8802 201.573C37.0848 202.442 37.9621 202.908 38.5965 203.535" stroke="#DAECF4" stroke-width="2" stroke-linecap="round" stroke-linejoin="round"/>
</g>
<path d="M1598.73 458.618C1596.73 461.354 1593.63 465.538 1591.63 468.465C1590.85 469.604 1588.32 472.44 1589.66 472.105C1590.61 471.867 1591.44 466.876 1591.63 466.078C1593.18 459.582 1593.36 452.906 1593.36 446.264" stroke="#DCEFF8" stroke-width="4" stroke-linecap="round" stroke-linejoin="round"/>
<path d="M1580.47 468.286C1580.47 469.319 1581.1 471.971 1579.57 472.045C1576.95 472.173 1576.76 471.578 1576.47 468.853C1575.8 462.635 1577.82 457.401 1580.62 451.934C1581.25 450.698 1582.98 444.809 1584.47 448.174C1584.88 449.113 1586.77 453.078 1585.6 454.082C1583.7 455.709 1579.64 451.666 1578.65 450.591C1574.32 445.917 1573.59 451.242 1569.19 452.71" stroke="#DCEFF8" stroke-width="4" stroke-linecap="round" stroke-linejoin="round"/>
<path d="M420.299 560.486C418.639 557.531 416.116 552.974 414.281 549.942C413.567 548.761 412.034 545.284 411.784 546.641C411.606 547.606 415.806 550.426 416.454 550.931C421.721 555.037 427.724 557.965 433.768 560.717" stroke="#D4E1E6" stroke-width="4" stroke-linecap="round" stroke-linejoin="round"/>
<path d="M419.069 539.859C418.129 539.431 415.454 538.906 416.019 537.487C416.988 535.05 417.608 535.123 420.21 535.986C426.146 537.953 430.071 541.964 433.889 546.772C434.752 547.858 439.392 551.88 435.716 551.833C434.689 551.82 430.297 551.899 429.869 550.417C429.175 548.014 434.536 545.996 435.927 545.536C441.972 543.538 437.43 540.665 437.919 536.049" stroke="#D4E1E6" stroke-width="4" stroke-linecap="round" stroke-linejoin="round"/>
<path d="M1563.21 321.182C1562.82 322.886 1562.46 327.892 1559.6 325.963C1558.22 325.032 1557.36 323.469 1556.7 321.977C1555.99 320.372 1555.52 318.618 1555.52 316.863C1555.52 315.137 1556.23 313.643 1557.44 312.426" stroke="#D4E1E6" stroke-width="4" stroke-linecap="round" stroke-linejoin="round"/>
<path d="M1551.25 329.938C1552.05 330.928 1552.74 330.792 1553.91 330.792C1554.63 330.792 1556.01 331.047 1556.58 330.555C1557.39 329.84 1556.9 328.374 1557.06 327.422C1557.28 326.169 1557.22 325.088 1557.03 323.851C1556.77 322.203 1555.84 319.512 1554.07 318.88C1552.58 318.348 1550.74 318.156 1549.21 318.584C1547.22 319.138 1545.96 321.218 1544.7 322.7C1543.57 324.026 1542.1 325.252 1541.21 326.734" stroke="#D4E1E6" stroke-width="4" stroke-linecap="round" stroke-linejoin="round"/>
<path d="M340.191 318.891C341.214 317.473 343.499 313.004 345.378 315.896C346.284 317.291 346.473 319.069 346.499 320.701C346.526 322.455 346.27 324.251 345.585 325.867C344.912 327.456 343.68 328.557 342.084 329.203" stroke="#DCEFF8" stroke-width="4" stroke-linecap="round" stroke-linejoin="round"/>
<path d="M354.619 315.496C354.264 314.27 353.581 314.128 352.505 313.672C351.84 313.391 350.665 312.615 349.954 312.849C348.923 313.189 348.805 314.73 348.284 315.543C347.599 316.614 347.231 317.633 346.924 318.845C346.514 320.462 346.323 323.304 347.705 324.575C348.869 325.646 350.488 326.541 352.068 326.746C354.117 327.012 356.084 325.587 357.825 324.714C359.381 323.934 361.213 323.379 362.61 322.361" stroke="#DCEFF8" stroke-width="4" stroke-linecap="round" stroke-linejoin="round"/>
<path d="M1352.76 477.812C1356.98 474.102 1360.38 470.928 1361.78 465.331C1362.56 462.205 1360.77 461.542 1357.91 461.939C1355.86 462.226 1354.04 463.205 1352.22 464.164C1351.09 464.765 1349.81 465.875 1351.57 464.059C1354.37 461.173 1357.28 458.382 1359.93 455.357C1362.55 452.37 1364.77 448.459 1369.13 448.032C1374.2 447.534 1378.01 451.546 1380.96 455.131C1382.43 456.914 1383.76 458.796 1385.03 460.724C1385.7 461.734 1385.68 461.892 1386.52 462.118" stroke="#DCEFF8" stroke-width="4" stroke-linecap="round" stroke-linejoin="round"/>
<path d="M1343.08 465.94C1341.54 465.521 1338.95 463.942 1338.65 462.06C1338.34 460.084 1342.19 460.113 1343.31 459.808C1343.79 459.675 1347.52 458.184 1347.07 457.373C1346.49 456.34 1345.54 455.393 1344.81 454.462C1344.07 453.508 1343.01 453.166 1342.3 452.263" stroke="#DCEFF8" stroke-width="4" stroke-linecap="round" stroke-linejoin="round"/>
<path d="M554.125 577.913C550.642 574.459 547.674 571.689 542.717 570.806C539.948 570.313 539.479 571.917 539.996 574.376C540.369 576.151 541.33 577.676 542.273 579.197C542.866 580.152 543.909 581.2 542.221 579.774C539.541 577.508 536.936 575.144 534.143 573.015C531.385 570.911 527.846 569.214 527.213 565.447C526.476 561.059 529.741 557.502 532.685 554.714C534.15 553.328 535.709 552.059 537.312 550.838C538.152 550.198 538.29 550.204 538.437 549.459" stroke="#DCEFF8" stroke-width="4" stroke-linecap="round" stroke-linejoin="round"/>
<path d="M544.369 587.056C544.096 588.415 542.877 590.769 541.256 591.141C539.554 591.532 539.348 588.175 539.016 587.224C538.871 586.809 537.349 583.65 536.67 584.095C535.806 584.661 535.038 585.543 534.271 586.232C533.484 586.94 533.25 587.884 532.506 588.554" stroke="#DCEFF8" stroke-width="4" stroke-linecap="round" stroke-linejoin="round"/>
<path d="M1266.6 51.427C1265.03 48.3731 1261.47 41.2155 1259.38 37.8904C1257.97 35.6425 1257.16 35.1339 1257.08 37.5438C1257.02 39.29 1257.21 40.972 1257.43 42.7016C1257.85 45.9946 1259.23 51.2479 1257.98 54.5054C1257.25 56.3867 1257.46 56.1975 1254.88 56.1975C1244.96 56.1975 1235.05 56.1427 1225.14 56.5645" stroke="#DCEFF8" stroke-width="4" stroke-linecap="round" stroke-linejoin="round"/>
<path d="M1244.92 45.8721C1245.55 47.5665 1247.17 50.4723 1244.81 51.5348C1243.87 51.956 1243.16 50.3323 1243.16 49.6169C1243.16 48.9937 1243.53 48.8258 1243.89 48.3816C1244.6 47.5052 1245.17 46.4563 1245.76 45.495C1246.31 44.576 1247.13 43.7144 1247.53 42.7124C1247.83 41.9667 1247.86 41.15 1247.84 40.3589C1247.83 39.4054 1247.39 37.8602 1246.24 37.8038C1244.67 37.7273 1243.62 37.7187 1242.95 39.3187C1242.08 41.4092 1242.04 43.7657 1243.86 45.2869" stroke="#DCEFF8" stroke-width="4" stroke-linecap="round" stroke-linejoin="round"/>
<path d="M1238.83 45.6382C1238.19 46.4543 1235.95 49.2973 1235.13 50.2932C1234.85 50.6343 1234.25 51.6811 1234.2 51.2424C1234.16 50.8756 1234.42 50.5354 1234.5 50.1762C1234.65 49.5714 1234.77 48.9616 1234.91 48.3558C1235.83 44.3419 1236.01 40.3861 1236.14 36.2762" stroke="#DCEFF8" stroke-width="4" stroke-linecap="round" stroke-linejoin="round"/>
<path d="M282.026 109.264C282.462 105.858 283.585 97.9434 283.748 94.0203C283.858 91.3682 283.478 90.4901 282.046 92.4296C281.008 93.835 280.207 95.3257 279.409 96.8762C277.891 99.8282 276.054 104.94 273.176 106.915C271.514 108.055 271.787 108.014 269.664 106.554C261.487 100.932 253.351 95.2721 244.945 90.0052" stroke="#DCEFF8" stroke-width="4" stroke-linecap="round" stroke-linejoin="round"/>
<path d="M267.305 92.402C266.867 94.1571 266.554 97.4678 264.006 97.0057C262.996 96.8225 263.332 95.0829 263.737 94.4934C264.09 93.9799 264.491 94.0517 265.037 93.888C266.114 93.5651 267.186 93.0289 268.21 92.5664C269.189 92.1243 270.354 91.88 271.249 91.279C271.915 90.8317 272.401 90.1752 272.839 89.5164C273.367 88.7224 273.883 87.2019 272.964 86.5012C271.713 85.5486 270.859 84.9508 269.4 85.8894C267.494 87.1158 266.126 89.0354 266.769 91.3232" stroke="#DCEFF8" stroke-width="4" stroke-linecap="round" stroke-linejoin="round"/>
<path d="M262.422 88.7616C261.428 89.068 257.969 90.1407 256.731 90.4981C256.307 90.6205 255.225 91.1463 255.433 90.7572C255.607 90.4318 256.01 90.2958 256.283 90.048C256.744 89.6308 257.189 89.1967 257.647 88.7763C260.68 85.9906 263.068 82.832 265.508 79.5221" stroke="#DCEFF8" stroke-width="4" stroke-linecap="round" stroke-linejoin="round"/>
</svg>
