<svg width="284" height="226" viewBox="0 0 284 226" fill="none" xmlns="http://www.w3.org/2000/svg">
<mask id="mask0" mask-type="alpha" maskUnits="userSpaceOnUse" x="0" y="0" width="284" height="226">
<rect width="284" height="226" fill="#C4C4C4"/>
</mask>
<g mask="url(#mask0)">
<path d="M276.808 223.613C280.065 196.384 284.588 175.161 279.243 148.431C274.644 125.43 268.181 96.8813 251.305 79.0383C241.576 68.7529 229.137 63.5688 214.83 60.0317C208.967 58.5823 197.433 55.8902 191.545 60.1363C184.857 64.9591 174.139 83.5183 179.628 90.9638C181.464 93.4539 188.381 92.5649 191.307 92.2611C199.396 91.4212 202.854 84.2424 205.491 78.1741C215.798 54.4574 213.261 35.8793 190.918 20.0084C175.258 8.88499 159.641 2.16175 139.316 2.06008C124.723 1.98709 108.326 1.35315 94.0775 5.75599C72.5012 12.4231 57.4449 24.4504 41.6783 39.6851C32.5245 48.53 25.58 55.5163 20.023 66.3049C17.6247 70.9609 13.5732 75.1623 11.477 78.9171L10.953 79.8558" stroke="#05A5EF" stroke-width="3" stroke-linecap="round" stroke-linejoin="round" stroke-dasharray="8 8"/>
<path d="M8.32861 59.8944C7.47585 71.3858 7.04265 82.9204 2.54073 93.9917C2.41464 94.3018 1.89365 95.1795 2.06668 94.8876C2.62338 93.9484 3.03319 92.9476 3.61128 92.0181C4.77662 90.1444 6.52938 88.8299 8.30433 87.4686C13.8563 83.2107 19.4831 79.0389 25.5211 75.4188C28.5083 73.6278 31.5732 71.868 34.7136 70.3369C35.3445 70.0293 36.6742 69.2314 36.7632 69.8688C36.8208 70.2822 36.4165 70.8329 36.1911 71.1736" stroke="#05A5EF" stroke-width="3" stroke-linecap="round" stroke-linejoin="round"/>
</g>
</svg>
