<svg width="1875" height="775" viewBox="0 0 1875 775" fill="none" xmlns="http://www.w3.org/2000/svg">
<path d="M1870.04 358.222L1848.02 363.411L1842.83 341.387L1820.8 346.577L1815.61 324.553L1793.59 329.742" stroke="#FED752" stroke-width="6" stroke-linecap="round" stroke-linejoin="round"/>
<path d="M1401.89 530.479L1378.1 539.349L1356.34 526.29L1332.55 535.16L1310.78 522.102L1287 530.972" stroke="#FED752" stroke-width="6" stroke-linecap="round" stroke-linejoin="round"/>
<path opacity="0.5" d="M204.988 339.505L197.541 322.708L208.075 307.654L200.628 290.858L211.161 275.803L203.715 259.007" stroke="#BE8DAA" stroke-opacity="0.51" stroke-width="6" stroke-linecap="round" stroke-linejoin="round"/>
<path opacity="0.4" d="M1627.92 530.287C1627.92 530.287 1637.16 535.17 1635.66 542.925C1634.16 550.681 1624.63 547.314 1623.13 555.07C1621.63 562.825 1631.73 563.256 1630.23 571.012C1628.73 578.768 1619.19 575.4 1617.69 583.156C1616.19 590.912 1626.3 591.342 1624.8 599.098C1623.3 606.854 1613.76 603.486 1612.26 611.242" stroke="#69CFFF" stroke-width="3" stroke-linecap="round" stroke-linejoin="round"/>
<path opacity="0.4" d="M94.2416 121.692L73.6299 119.702L71.5835 99.0955L50.9719 97.1049L48.9254 76.4988L28.3138 74.5082L26.2673 53.9021L5.65573 51.9115L3.60927 31.3054L-17.0023 29.3148" stroke="#05A5EF" stroke-width="3" stroke-linecap="round" stroke-linejoin="round"/>
<circle opacity="0.4" cx="55.998" cy="515.007" r="13.5" stroke="#FFC501" stroke-width="7"/>
<circle opacity="0.4" cx="1794" cy="611.007" r="13.5" stroke="#05A5EF" stroke-width="7"/>
<circle opacity="0.4" cx="1262" cy="677.004" r="13.5" stroke="#05A5EF" stroke-width="7"/>
<rect opacity="0.4" x="1670.24" y="158.987" width="23.5341" height="23.5341" transform="rotate(-91.9387 1670.24 158.987)" stroke="#BE8DAA" stroke-width="5"/>
<rect opacity="0.3" x="192.116" y="574.36" width="33.196" height="33.196" transform="rotate(-19.7822 192.116 574.36)" stroke="#FFA209" stroke-width="8"/>
<rect opacity="0.3" x="707.722" y="6.50457" width="33.196" height="33.196" transform="rotate(58.217 707.722 6.50457)" stroke="#FFA209" stroke-width="8"/>
</svg>
