<svg width="111" height="160" viewBox="0 0 111 160" fill="none" xmlns="http://www.w3.org/2000/svg">
<path d="M109.704 64.5249C113.545 104.663 79.0052 136.221 61.2549 146.982C46.851 139.275 1 113.324 1 73.9911C1 23.5905 18.9162 13.4799 46.4146 3.44542C73.9129 -6.58906 104.903 14.3525 109.704 64.5249Z" fill="#FFE17A" stroke="#FFB742" stroke-width="2"/>
<path d="M21.1308 39.9281C18.7667 45.7715 14.6532 52.9699 15.4182 59.5844C15.6325 61.4373 16.2338 63.4358 16.654 65.265C16.8423 66.0849 17.1793 66.6898 17.5901 67.4011" stroke="#FFB742" stroke-width="2" stroke-linecap="round" stroke-linejoin="round"/>
<path d="M65.0069 151.218C63.5214 150.06 62.2304 148.33 60.9119 146.982C60.8007 147.326 60.3501 147.796 60.0602 148.028C59.1319 148.772 58.3851 150.016 57.574 150.899C56.9657 151.562 56.5744 152.365 55.9222 153.008C54.8543 154.061 53.5676 154.886 52.3864 155.791C51.4612 156.499 51.1589 157.861 52.6187 157.66C53.3335 157.562 53.5238 156.818 54.3479 156.881C55.2289 156.948 56.2395 157.411 57.0406 157.793C60.0453 159.226 63.8816 158.744 66.8394 157.368C67.8428 156.901 69.2249 157.217 70.2978 157.111C71.061 157.035 71.3077 157.189 70.8225 156.641C70.0935 155.819 69.7048 154.764 68.8955 153.965C67.7566 152.841 66.2588 152.194 65.0069 151.218Z" fill="#FFE17A" stroke="#FFB742" stroke-width="2" stroke-linecap="round" stroke-linejoin="round"/>
</svg>
