<svg width="106" height="153" viewBox="0 0 106 153" fill="none" xmlns="http://www.w3.org/2000/svg">
<path d="M104.718 61.6109C108.383 99.9076 75.427 130.018 58.4909 140.286C44.7478 132.932 1 108.172 1 70.6429C1 22.5543 18.0944 12.9074 44.3313 3.33325C70.5683 -6.24094 100.137 13.74 104.718 61.6109Z" fill="#DAECF4" stroke="#79CEF5" stroke-width="2"/>
<path d="M67.6417 15.313C72.3832 19.013 79.2167 22.998 81.7406 28.8283C82.4476 30.4615 82.9045 32.3997 83.43 34.1116C83.6656 34.8789 83.6758 35.5394 83.6758 36.3232" stroke="#79CEF5" stroke-width="2" stroke-linecap="round" stroke-linejoin="round"/>
<path d="M62.0703 144.327C60.6529 143.222 59.4211 141.572 58.1632 140.286C58.057 140.614 57.6271 141.062 57.3505 141.283C56.4648 141.993 55.7523 143.18 54.9783 144.023C54.3979 144.655 54.0246 145.421 53.4023 146.035C52.3834 147.04 51.1557 147.827 50.0287 148.69C49.146 149.366 48.8575 150.665 50.2503 150.474C50.9324 150.38 51.114 149.67 51.9002 149.73C52.7408 149.794 53.7051 150.236 54.4694 150.601C57.3363 151.968 60.9966 151.508 63.8187 150.195C64.7761 149.75 66.0948 150.051 67.1184 149.95C67.8467 149.878 68.0821 150.024 67.6192 149.502C66.9236 148.717 66.5526 147.71 65.7805 146.948C64.6938 145.876 63.2648 145.258 62.0703 144.327Z" fill="#DAECF4" stroke="#79CEF5" stroke-width="2" stroke-linecap="round" stroke-linejoin="round"/>
</svg>
