<svg width="1920" height="52" viewBox="0 0 1920 52" fill="none" xmlns="http://www.w3.org/2000/svg">
<path d="M61.4678 6.10352e-05C25.8503 6.10352e-05 32.5941 17.8144 -3.02344 17.8144V51.2334H1931.71V17.8144C1896.1 17.8144 1902.84 6.10352e-05 1867.22 6.10352e-05C1831.6 6.10352e-05 1838.35 17.8144 1802.73 17.8144C1767.11 17.8144 1773.86 6.10352e-05 1738.24 6.10352e-05C1702.62 6.10352e-05 1709.37 17.8144 1673.75 17.8144C1638.13 17.8144 1644.87 6.10352e-05 1609.26 6.10352e-05C1573.64 6.10352e-05 1580.38 17.8144 1544.77 17.8144C1509.15 17.8144 1515.89 6.10352e-05 1480.27 6.10352e-05C1444.66 6.10352e-05 1451.4 17.8144 1415.78 17.8144C1380.17 17.8144 1386.91 6.10352e-05 1351.29 6.10352e-05C1315.67 6.10352e-05 1322.42 17.8144 1286.8 17.8144C1251.18 17.8144 1257.93 6.10352e-05 1222.31 6.10352e-05C1186.69 6.10352e-05 1193.44 17.8144 1157.82 17.8144C1122.2 17.8144 1128.94 6.10352e-05 1093.33 6.10352e-05C1057.71 6.10352e-05 1064.45 17.8144 1028.84 17.8144C993.218 17.8144 999.962 6.10352e-05 964.345 6.10352e-05C928.727 6.10352e-05 935.471 17.8144 899.853 17.8144C864.236 17.8144 870.98 6.10352e-05 835.362 6.10352e-05C799.745 6.10352e-05 806.489 17.8144 770.871 17.8144C735.254 17.8144 741.997 6.10352e-05 706.38 6.10352e-05C670.762 6.10352e-05 677.506 17.8144 641.889 17.8144C606.271 17.8144 613.015 6.10352e-05 577.397 6.10352e-05C541.78 6.10352e-05 548.524 17.8144 512.906 17.8144C477.289 17.8144 484.033 6.10352e-05 448.415 6.10352e-05C412.798 6.10352e-05 419.541 17.8144 383.924 17.8144C348.306 17.8144 355.05 6.10352e-05 319.433 6.10352e-05C283.815 6.10352e-05 290.559 17.8144 254.941 17.8144C219.324 17.8144 226.068 6.10352e-05 190.45 6.10352e-05C154.833 6.10352e-05 161.576 17.8144 125.959 17.8144C90.3415 17.8144 97.0853 6.10352e-05 61.4678 6.10352e-05Z" fill="white"/>
</svg>
