<svg width="1895" height="529" viewBox="0 0 1895 529" fill="none" xmlns="http://www.w3.org/2000/svg">
<path d="M1543.82 284.908C1542.78 285.524 1535.4 289.106 1536.12 290.434C1536.86 291.782 1537.71 293.08 1538.49 294.398C1538.65 294.664 1540.52 297.957 1540.36 296.654C1540.22 295.497 1542.26 294.678 1543.11 294.231C1545.08 293.189 1548.82 293.922 1550.66 295.097C1557.13 299.228 1544.05 307.977 1540.08 307.558" stroke="#DCEFF8" stroke-width="4" stroke-linecap="round" stroke-linejoin="round"/>
<path d="M1579.27 263.726C1578.23 264.343 1570.85 267.925 1571.57 269.253C1572.31 270.601 1573.16 271.899 1573.94 273.217C1574.1 273.483 1575.97 276.776 1575.81 275.473C1575.67 274.316 1577.71 273.497 1578.55 273.05C1580.53 272.007 1584.27 272.741 1586.11 273.916C1592.57 278.047 1579.5 286.796 1575.52 286.377" stroke="#DCEFF8" stroke-width="4" stroke-linecap="round" stroke-linejoin="round"/>
<path d="M1557.3 282.887C1559.54 286.637 1561.46 291.104 1564.79 293.969" stroke="#DCEFF8" stroke-width="4" stroke-linecap="round" stroke-linejoin="round"/>
<path d="M1556.39 292.936C1559.79 290.906 1563.19 288.877 1566.58 286.848" stroke="#DCEFF8" stroke-width="4" stroke-linecap="round" stroke-linejoin="round"/>
<path d="M845.655 384.224C845.409 383.479 844.178 378.268 843.229 378.539C842.266 378.815 841.319 379.17 840.367 379.484C840.175 379.548 837.812 380.27 838.664 380.355C839.421 380.431 839.654 381.843 839.818 382.445C840.201 383.851 839.202 386.13 838.192 387.134C834.641 390.664 830.928 381.094 831.761 378.62" stroke="#DCEFF8" stroke-width="4" stroke-linecap="round" stroke-linejoin="round"/>
<path d="M854.104 409.813C853.858 409.069 852.627 403.857 851.678 404.129C850.715 404.405 849.768 404.759 848.816 405.074C848.624 405.137 846.261 405.86 847.114 405.945C847.87 406.02 848.103 407.433 848.267 408.034C848.65 409.44 847.651 411.719 846.641 412.723C843.091 416.253 839.377 406.683 840.21 404.209" stroke="#DCEFF8" stroke-width="4" stroke-linecap="round" stroke-linejoin="round"/>
<path d="M845.023 393.102C842.316 393.995 839.198 394.58 836.9 396.293" stroke="#DCEFF8" stroke-width="4" stroke-linecap="round" stroke-linejoin="round"/>
<path d="M838.752 391.094C839.561 393.545 840.371 395.997 841.18 398.448" stroke="#DCEFF8" stroke-width="4" stroke-linecap="round" stroke-linejoin="round"/>
<path d="M1050.52 432.761C1049.79 432.477 1044.99 430.11 1044.6 431.015C1044.2 431.933 1043.87 432.89 1043.5 433.824C1043.43 434.012 1042.48 436.295 1043.09 435.691C1043.63 435.155 1044.87 435.875 1045.44 436.132C1046.77 436.73 1047.89 438.952 1048.02 440.37C1048.48 445.355 1038.74 442.129 1037.36 439.912" stroke="#DCEFF8" stroke-width="4" stroke-linecap="round" stroke-linejoin="round"/>
<path d="M1075.64 442.528C1074.91 442.244 1070.11 439.877 1069.71 440.782C1069.31 441.701 1068.98 442.657 1068.62 443.591C1068.55 443.779 1067.6 446.062 1068.21 445.459C1068.75 444.923 1069.98 445.643 1070.55 445.899C1071.88 446.498 1073 448.719 1073.14 450.137C1073.6 455.122 1063.85 451.896 1062.48 449.68" stroke="#DCEFF8" stroke-width="4" stroke-linecap="round" stroke-linejoin="round"/>
<path d="M1056.97 438.897C1055.94 441.555 1054.4 444.332 1054.26 447.194" stroke="#DCEFF8" stroke-width="4" stroke-linecap="round" stroke-linejoin="round"/>
<path d="M1051.43 442.457C1053.84 443.393 1056.24 444.328 1058.65 445.264" stroke="#DCEFF8" stroke-width="4" stroke-linecap="round" stroke-linejoin="round"/>
<g opacity="0.8">
<path d="M1234.43 204.96C1234.92 203.257 1235.59 201.722 1236.3 200.102C1236.4 199.888 1237.34 196.556 1237.63 197.411C1238.42 199.784 1239.21 202.157 1240 204.53C1241.23 208.22 1242.47 211.91 1243.7 215.6C1244.07 216.715 1244.94 218.224 1244.44 219.243" stroke="#DAECF4" stroke-width="4" stroke-linecap="round" stroke-linejoin="round"/>
<path d="M1250.71 195.24C1250.63 194.951 1249.66 192.097 1250.74 192.161C1253.47 192.321 1254.36 200.624 1254.56 202.239C1254.95 205.46 1255.08 209.109 1253.89 212.2C1253.17 214.047 1254.68 211.669 1256.1 211.223C1258.66 210.416 1264.26 212.49 1266.19 210.291C1266.69 209.721 1266.29 208.399 1266.29 207.664" stroke="#DAECF4" stroke-width="4" stroke-linecap="round" stroke-linejoin="round"/>
<path d="M1265.85 186.378C1266.17 187.497 1267.25 194.924 1268.76 195.568C1269.56 195.908 1270.09 192.962 1270.13 192.679C1270.22 191.928 1269.73 188.012 1270.46 190.186C1271.46 193.192 1272.25 196.197 1274.08 198.82C1275.02 200.162 1276.39 201.231 1277.43 202.518" stroke="#DAECF4" stroke-width="4" stroke-linecap="round" stroke-linejoin="round"/>
<path d="M1280.28 181.088C1280.26 182.168 1279.78 184.832 1280.54 185.818C1280.64 185.95 1282.83 184.35 1283 184.254C1285.76 182.718 1286.65 182.877 1288.36 185.641C1289.34 187.227 1293.3 192.845 1291.37 194.664C1289.11 196.802 1285.92 196.634 1283.29 195.801" stroke="#DAECF4" stroke-width="4" stroke-linecap="round" stroke-linejoin="round"/>
<path d="M1279.28 180.945C1282.28 179.437 1285.31 178.258 1287.57 175.8" stroke="#DAECF4" stroke-width="4" stroke-linecap="round" stroke-linejoin="round"/>
<path d="M1231.58 224.961C1232.63 228.104 1233.68 231.246 1234.73 234.389" stroke="#DAECF4" stroke-width="4" stroke-linecap="round" stroke-linejoin="round"/>
<path d="M1230.15 232.105C1233.06 229.865 1235.96 227.626 1238.87 225.387" stroke="#DAECF4" stroke-width="4" stroke-linecap="round" stroke-linejoin="round"/>
<path d="M1260.44 221.523C1260.69 220.747 1261.31 217.273 1262.51 217.102C1263.85 216.91 1264.23 220.849 1264.19 221.594C1264.18 221.817 1263.51 224.568 1263.56 224.554C1264.37 224.345 1264.9 222.948 1265.82 222.585C1269.4 221.169 1276.32 227.467 1274.15 231.13C1271.96 234.817 1264.73 237.631 1260.73 236.666" stroke="#DAECF4" stroke-width="4" stroke-linecap="round" stroke-linejoin="round"/>
<path d="M1277.55 214.946C1281.77 218.478 1286.02 221.905 1290.36 225.274" stroke="#DAECF4" stroke-width="4" stroke-linecap="round" stroke-linejoin="round"/>
<path d="M1278 215.17C1277.27 212.646 1279.71 211.013 1282.2 212.186C1283.99 213.029 1282.46 217.45 1282.34 218.713C1282.12 221.141 1282.58 225.007 1284.19 226.998C1286.82 230.244 1292.37 225.708 1294.4 223.925" stroke="#DAECF4" stroke-width="4" stroke-linecap="round" stroke-linejoin="round"/>
<path d="M1289.67 205.443C1291.18 204.39 1292.8 203.546 1294.32 202.536C1295.02 202.071 1294.88 202.675 1294.98 203.382C1295.53 207.249 1296.71 211.693 1298.57 215.135C1299.35 216.573 1300.34 218.087 1301.64 219.099" stroke="#DAECF4" stroke-width="4" stroke-linecap="round" stroke-linejoin="round"/>
<path d="M1294.25 211.977C1296.09 210.978 1298.1 210.045 1299.68 208.642" stroke="#DAECF4" stroke-width="4" stroke-linecap="round" stroke-linejoin="round"/>
<path d="M1288.07 246.796C1297.14 238.46 1306.09 230.809 1316.29 223.941" stroke="#DAECF4" stroke-width="4" stroke-linecap="round" stroke-linejoin="round"/>
</g>
<g opacity="0.7">
<path d="M245.544 372.026C247.309 371.871 248.98 371.938 250.749 372.024C250.983 372.035 254.432 371.717 253.737 372.291C251.808 373.884 249.879 375.477 247.951 377.069C244.951 379.546 241.951 382.024 238.952 384.501C238.045 385.249 236.953 386.61 235.82 386.502" stroke="#DAECF4" stroke-width="4" stroke-linecap="round" stroke-linejoin="round"/>
<path d="M260.473 383.719C260.714 383.539 263.026 381.605 263.357 382.639C264.191 385.243 256.763 389.058 255.327 389.824C252.464 391.352 249.108 392.789 245.792 392.783C243.811 392.78 246.576 393.338 247.501 394.497C249.175 396.595 249.254 402.563 252.001 403.573C252.714 403.835 253.804 402.987 254.489 402.723" stroke="#DAECF4" stroke-width="4" stroke-linecap="round" stroke-linejoin="round"/>
<path d="M274.192 394.654C273.261 395.349 266.721 399.031 266.665 400.675C266.636 401.543 269.574 400.977 269.852 400.908C270.587 400.726 274.065 398.861 272.297 400.321C269.854 402.338 267.335 404.156 265.545 406.808C264.63 408.164 264.127 409.83 263.302 411.265" stroke="#DAECF4" stroke-width="4" stroke-linecap="round" stroke-linejoin="round"/>
<path d="M284.321 406.21C283.305 406.577 280.646 407.086 279.999 408.151C279.913 408.294 282.196 409.764 282.347 409.89C284.771 411.905 284.944 412.798 282.982 415.388C281.855 416.875 278.038 422.588 275.647 421.445C272.837 420.102 271.844 417.063 271.675 414.31" stroke="#DAECF4" stroke-width="4" stroke-linecap="round" stroke-linejoin="round"/>
<path d="M284.092 405.226C286.578 407.478 288.77 409.886 291.875 411.102" stroke="#DAECF4" stroke-width="4" stroke-linecap="round" stroke-linejoin="round"/>
<path d="M225.857 376.566C223.303 378.676 220.749 380.786 218.194 382.895" stroke="#DAECF4" stroke-width="4" stroke-linecap="round" stroke-linejoin="round"/>
<path d="M218.68 377.807C221.814 379.71 224.949 381.614 228.083 383.517" stroke="#DAECF4" stroke-width="4" stroke-linecap="round" stroke-linejoin="round"/>
<path d="M239.452 402.251C240.267 402.206 243.731 401.535 244.322 402.591C244.984 403.772 241.449 405.551 240.738 405.779C240.525 405.847 237.718 406.216 237.751 406.26C238.235 406.933 239.73 406.927 240.399 407.654C243.011 410.49 239.624 419.21 235.424 418.5C231.197 417.785 225.97 412.055 225.429 407.973" stroke="#DAECF4" stroke-width="4" stroke-linecap="round" stroke-linejoin="round"/>
<path d="M251.748 415.849C249.971 421.055 248.305 426.258 246.722 431.515" stroke="#DAECF4" stroke-width="4" stroke-linecap="round" stroke-linejoin="round"/>
<path d="M251.701 416.349C253.795 414.762 256.196 416.45 255.999 419.198C255.857 421.17 251.179 421.33 249.96 421.677C247.615 422.344 244.173 424.163 242.896 426.385C240.814 430.007 247.043 433.549 249.437 434.801" stroke="#DAECF4" stroke-width="4" stroke-linecap="round" stroke-linejoin="round"/>
<path d="M264.979 423.742C266.503 424.769 267.874 425.975 269.364 427.031C270.05 427.517 269.435 427.601 268.811 427.949C265.4 429.851 261.682 432.557 259.14 435.533C258.079 436.776 257.021 438.241 256.545 439.82" stroke="#DAECF4" stroke-width="4" stroke-linecap="round" stroke-linejoin="round"/>
<path d="M260.531 430.364C262.124 431.719 263.718 433.257 265.595 434.224" stroke="#DAECF4" stroke-width="4" stroke-linecap="round" stroke-linejoin="round"/>
<path d="M225.82 437.13C236.863 442.592 247.224 448.191 257.299 455.226" stroke="#DAECF4" stroke-width="4" stroke-linecap="round" stroke-linejoin="round"/>
</g>
<path d="M260.561 262.29C264.488 260.868 270.044 260.186 272.995 256.999C273.231 256.744 273.419 255.699 273.419 256.046C273.419 257.184 273.419 258.321 273.419 259.459C273.419 262.81 273.419 266.162 273.419 269.513C273.419 270.791 273.835 272.827 272.943 273.72" stroke="#D4E1E6" stroke-width="4" stroke-linecap="round" stroke-linejoin="round"/>
<path d="M269.133 267.052C271.701 265.034 274.506 263.882 277.705 263.242" stroke="#D4E1E6" stroke-width="4" stroke-linecap="round" stroke-linejoin="round"/>
<path d="M1178.14 474.932C1182.09 476.273 1186.86 479.21 1191.15 478.563C1191.5 478.512 1192.3 477.812 1192.08 478.084C1191.37 478.972 1190.66 479.861 1189.95 480.749C1187.86 483.367 1185.76 485.985 1183.67 488.602C1182.87 489.6 1181.93 491.451 1180.67 491.591" stroke="#DCEFF8" stroke-width="4" stroke-linecap="round" stroke-linejoin="round"/>
<path d="M1181.86 484.004C1185.13 484.031 1188.04 484.883 1190.93 486.381" stroke="#DCEFF8" stroke-width="4" stroke-linecap="round" stroke-linejoin="round"/>
<path d="M1631.08 89.159C1634.71 87.0849 1640.06 85.4604 1642.43 81.8147C1642.61 81.523 1642.62 80.4615 1642.68 80.8037C1642.87 81.9246 1643.07 83.0454 1643.26 84.1662C1643.84 87.4679 1644.41 90.7695 1644.99 94.0712C1645.21 95.3301 1645.97 97.2646 1645.24 98.2973" stroke="#DCEFF8" stroke-width="4" stroke-linecap="round" stroke-linejoin="round"/>
<path d="M1640.34 92.3814C1642.53 89.9529 1645.09 88.3374 1648.14 87.1588" stroke="#DCEFF8" stroke-width="4" stroke-linecap="round" stroke-linejoin="round"/>
<path d="M1837.47 172.371C1837.68 171.028 1838.69 166.996 1839.17 170.723C1839.53 173.573 1838.95 176.489 1837.8 179.153C1836.48 182.191 1834.45 185.23 1832.4 187.936C1830.96 189.847 1831.14 188.434 1831.19 187.11C1831.22 186.199 1830.91 184.641 1831.89 184.025C1833.51 183.007 1835.61 185.214 1836.52 186.104C1837.61 187.179 1839.69 190.575 1841.35 190.958C1842.04 191.119 1842.51 189.42 1842.68 189.018" stroke="#DCEFF8" stroke-width="4" stroke-linecap="round" stroke-linejoin="round"/>
<path d="M1846.89 171.35C1846.85 172.396 1845.2 178.757 1848.17 177.38C1849.34 176.838 1850.61 176.109 1851.37 175.136C1851.99 174.347 1852.23 171.569 1852.61 172.47C1853.34 174.241 1852.46 177.541 1852.39 179.414C1852.32 181.429 1852.25 183.444 1852.19 185.458" stroke="#DCEFF8" stroke-width="4" stroke-linecap="round" stroke-linejoin="round"/>
<path d="M835.057 36.4412C836.393 36.3924 840.455 36.5416 836.916 37.603C834.21 38.4148 831.294 38.4255 828.534 37.908C825.387 37.3179 822.129 36.1136 819.192 34.8448C817.118 33.9488 818.516 33.8572 819.805 33.6644C820.693 33.5317 822.157 33.0011 822.905 33.7278C824.14 34.9288 822.324 37.1052 821.599 38.0316C820.725 39.1494 817.752 41.5139 817.636 42.9961C817.587 43.6193 819.305 43.7177 819.721 43.7906" stroke="#DCEFF8" stroke-width="4" stroke-linecap="round" stroke-linejoin="round"/>
<path d="M837.497 44.2941C836.477 44.4465 830.057 44.1463 831.847 46.4379C832.553 47.3408 833.454 48.2957 834.515 48.7782C835.375 49.1697 838.105 48.8875 837.289 49.3643C835.686 50.3013 832.35 50.1202 830.525 50.3931C828.561 50.6866 826.597 50.9802 824.634 51.2737" stroke="#DCEFF8" stroke-width="4" stroke-linecap="round" stroke-linejoin="round"/>
<path d="M92.8678 326.396C93.0171 325.068 93.7652 321.072 94.2918 324.729C94.6945 327.526 94.2739 330.412 93.3541 333.065C92.3052 336.09 90.6323 339.134 88.9433 341.852C87.7505 343.77 87.8666 342.374 87.8666 341.07C87.8666 340.172 87.5583 338.646 88.3876 338.014C89.7581 336.97 91.6419 339.088 92.4511 339.941C93.4273 340.971 95.3263 344.261 96.775 344.595C97.3841 344.736 97.7355 343.051 97.869 342.65" stroke="#DCEFF8" stroke-width="4" stroke-linecap="round" stroke-linejoin="round"/>
<path d="M100.994 325.146C100.994 326.177 99.7481 332.482 102.279 331.05C103.277 330.486 104.354 329.735 104.988 328.758C105.503 327.965 105.627 325.224 105.978 326.101C106.668 327.825 105.995 331.097 105.995 332.943C105.995 334.928 105.995 336.914 105.995 338.899" stroke="#DCEFF8" stroke-width="4" stroke-linecap="round" stroke-linejoin="round"/>
<g opacity="0.8">
<path d="M28.2312 206.53C34.8888 223.747 38.0644 241.409 41.427 259.487C41.6204 260.526 43.7447 275.571 44.1662 275.355C45.5552 274.643 46.7887 272.851 47.9213 271.789C50.9196 268.976 53.6314 265.877 56.568 263.001C64.1541 255.569 72.2049 248.164 80.8017 241.966" stroke="#DAECF4" stroke-width="3" stroke-linecap="round" stroke-linejoin="round"/>
<path d="M40.8965 259.713C46.4988 257.113 50.2173 255.135 55.5162 259.054C57.128 260.247 58.553 261.907 60.0927 263.216" stroke="#DAECF4" stroke-width="3" stroke-linecap="round" stroke-linejoin="round"/>
<path d="M47.2875 244.259C48.235 245.33 49.6994 247.829 51.1041 248.395C52.0352 248.77 51.9617 246.974 52.3579 246.428C52.993 245.553 51.9544 244.903 51.3414 244.21C50.7982 243.596 50.3538 242.725 51.0414 243.95C51.7784 245.263 52.929 246.361 53.9282 247.49C54.8683 248.553 55.7379 249.769 56.9381 250.536" stroke="#DAECF4" stroke-width="2" stroke-linecap="round" stroke-linejoin="round"/>
<path d="M55.7134 237.751C54.8462 238.266 54.1645 238.857 53.396 239.486C52.6523 240.094 51.9736 239.936 52.8438 240.92C53.3449 241.486 54.5647 242.41 54.7685 243.175C54.841 243.446 54.4605 243.125 54.427 242.986C54.342 242.635 54.7475 242.369 54.9778 242.184C57.5859 240.084 60.3768 241.968 61.8474 244.407C63.0081 246.331 59.2974 248.654 57.7476 248.244" stroke="#DAECF4" stroke-width="2" stroke-linecap="round" stroke-linejoin="round"/>
<path d="M57.3313 233.167C58.1177 234.056 59.044 235.587 60.0699 236.242C60.4352 236.476 62.0074 234.889 61.5153 234.333C60.9082 233.647 60.3231 232.933 59.6903 232.27C58.8763 231.419 58.353 232.263 57.6849 232.854" stroke="#DAECF4" stroke-width="2" stroke-linecap="round" stroke-linejoin="round"/>
</g>
<g opacity="0.8">
<path d="M1881.3 261.88C1864.56 269.675 1847.15 274.025 1829.34 278.589C1828.32 278.851 1813.45 281.978 1813.69 282.384C1814.5 283.722 1816.37 284.833 1817.5 285.892C1820.51 288.695 1823.78 291.194 1826.85 293.931C1834.77 301.003 1842.7 308.54 1849.46 316.703" stroke="#DAECF4" stroke-width="3" stroke-linecap="round" stroke-linejoin="round"/>
<path d="M1829.08 278.074C1832.05 283.49 1834.27 287.068 1830.72 292.617C1829.63 294.305 1828.07 295.838 1826.87 297.462" stroke="#DAECF4" stroke-width="3" stroke-linecap="round" stroke-linejoin="round"/>
<path d="M1844.93 283.418C1843.92 284.435 1841.53 286.063 1841.06 287.503C1840.74 288.457 1842.53 288.263 1843.1 288.622C1844.02 289.197 1844.6 288.118 1845.25 287.46C1845.82 286.877 1846.66 286.375 1845.49 287.143C1844.23 287.966 1843.21 289.188 1842.15 290.26C1841.15 291.269 1840 292.218 1839.31 293.467" stroke="#DAECF4" stroke-width="2" stroke-linecap="round" stroke-linejoin="round"/>
<path d="M1851.98 291.389C1851.41 290.558 1850.78 289.918 1850.1 289.193C1849.44 288.492 1849.55 287.804 1848.63 288.738C1848.1 289.276 1847.26 290.555 1846.51 290.809C1846.24 290.9 1846.54 290.499 1846.67 290.456C1847.02 290.348 1847.31 290.735 1847.51 290.952C1849.78 293.414 1848.09 296.324 1845.75 297.955C1843.91 299.242 1841.35 295.695 1841.65 294.121" stroke="#DAECF4" stroke-width="2" stroke-linecap="round" stroke-linejoin="round"/>
<path d="M1856.67 292.697C1855.83 293.541 1854.37 294.568 1853.78 295.635C1853.57 296.016 1855.26 297.478 1855.78 296.95C1856.43 296.298 1857.1 295.667 1857.72 294.991C1858.51 294.122 1857.64 293.656 1857 293.029" stroke="#DAECF4" stroke-width="2" stroke-linecap="round" stroke-linejoin="round"/>
</g>
<path d="M451 78.5146C453 75.7787 456.103 71.5944 458.102 68.6677C458.88 67.5284 461.41 64.6926 460.071 65.0273C459.119 65.2654 458.293 70.2567 458.102 71.0548C456.547 77.5504 456.371 84.2267 456.371 90.8681" stroke="#DCEFF8" stroke-width="4" stroke-linecap="round" stroke-linejoin="round"/>
<path d="M469.262 68.8466C469.262 67.8129 468.631 65.1613 470.157 65.0869C472.776 64.9591 472.967 65.5543 473.26 68.2797C473.93 74.4971 471.906 79.7315 469.113 85.1986C468.482 86.4339 466.744 92.3234 465.263 88.9584C464.85 88.019 462.958 84.0545 464.129 83.0502C466.028 81.4228 470.087 85.466 471.082 86.5414C475.405 91.2149 476.138 85.8906 480.541 84.4228" stroke="#DCEFF8" stroke-width="4" stroke-linecap="round" stroke-linejoin="round"/>
<path d="M768.717 231.619C767.908 228.328 766.699 223.262 765.743 219.849C765.371 218.52 764.825 214.759 764.221 216C763.791 216.882 767.082 220.724 767.571 221.384C771.546 226.751 776.546 231.179 781.632 235.45" stroke="#DCEFF8" stroke-width="4" stroke-linecap="round" stroke-linejoin="round"/>
<path d="M773.056 211.417C772.264 210.752 769.828 209.531 770.752 208.314C772.338 206.226 772.917 206.463 775.193 207.99C780.385 211.476 783.092 216.392 785.483 222.046C786.023 223.324 789.416 228.442 785.887 227.412C784.902 227.124 780.649 226.024 780.633 224.481C780.608 221.981 786.314 221.472 787.778 221.401C794.137 221.096 790.53 217.111 792.238 212.795" stroke="#DCEFF8" stroke-width="4" stroke-linecap="round" stroke-linejoin="round"/>
<path d="M1281.49 341.119C1283.15 344.074 1285.67 348.631 1287.5 351.663C1288.22 352.844 1289.75 356.321 1290 354.964C1290.18 353.999 1285.98 351.179 1285.33 350.674C1280.06 346.568 1274.06 343.64 1268.02 340.888" stroke="#D4E1E6" stroke-width="4" stroke-linecap="round" stroke-linejoin="round"/>
<path d="M1282.72 361.746C1283.66 362.174 1286.33 362.699 1285.77 364.118C1284.8 366.555 1284.18 366.482 1281.57 365.619C1275.64 363.652 1271.71 359.641 1267.9 354.833C1267.03 353.747 1262.39 349.725 1266.07 349.772C1267.1 349.785 1271.49 349.706 1271.92 351.188C1272.61 353.591 1267.25 355.609 1265.86 356.069C1259.81 358.067 1264.35 360.94 1263.87 365.556" stroke="#D4E1E6" stroke-width="4" stroke-linecap="round" stroke-linejoin="round"/>
<path d="M332.393 175.383C332.781 173.678 333.141 168.672 335.999 170.601C337.379 171.533 338.246 173.095 338.906 174.588C339.616 176.193 340.081 177.947 340.081 179.701C340.081 181.427 339.376 182.921 338.159 184.138" stroke="#D4E1E6" stroke-width="4" stroke-linecap="round" stroke-linejoin="round"/>
<path d="M344.351 166.627C343.547 165.636 342.863 165.773 341.694 165.773C340.972 165.773 339.587 165.517 339.024 166.01C338.207 166.725 338.7 168.19 338.538 169.142C338.325 170.396 338.383 171.477 338.574 172.713C338.827 174.361 339.759 177.053 341.528 177.684C343.018 178.216 344.858 178.408 346.392 177.981C348.382 177.426 349.638 175.347 350.9 173.864C352.029 172.539 353.499 171.313 354.388 169.83" stroke="#D4E1E6" stroke-width="4" stroke-linecap="round" stroke-linejoin="round"/>
<path d="M688.245 5.28676C689.965 4.97268 694.709 3.33345 694.06 6.72036C693.747 8.35491 692.652 9.76719 691.54 10.9615C690.344 12.2458 688.915 13.3633 687.302 14.054C685.715 14.7333 684.064 14.6736 682.466 14.0337" stroke="#DCEFF8" stroke-width="4" stroke-linecap="round" stroke-linejoin="round"/>
<path d="M701.003 12.834C701.597 11.7043 701.203 11.1294 700.743 10.0547C700.459 9.39141 700.148 8.01767 699.474 7.69414C698.495 7.22442 697.342 8.25417 696.403 8.47982C695.167 8.77711 694.196 9.25675 693.134 9.91817C691.719 10.8001 689.612 12.7163 689.727 14.5906C689.824 16.1698 690.372 17.9368 691.369 19.1789C692.663 20.7903 695.068 21.126 696.928 21.7029C698.591 22.2186 700.296 23.0875 702.009 23.3217" stroke="#DCEFF8" stroke-width="4" stroke-linecap="round" stroke-linejoin="round"/>
<path d="M670.516 360.278C671.776 359.067 674.827 355.082 676.156 358.264C676.797 359.8 676.663 361.582 676.395 363.192C676.107 364.923 675.532 366.643 674.568 368.11C673.62 369.552 672.211 370.413 670.525 370.762" stroke="#DCEFF8" stroke-width="4" stroke-linecap="round" stroke-linejoin="round"/>
<path d="M685.319 359.53C685.191 358.261 684.545 357.999 683.568 357.357C682.965 356.96 681.947 355.986 681.207 356.089C680.131 356.237 679.738 357.733 679.08 358.439C678.213 359.369 677.668 360.305 677.148 361.443C676.455 362.959 675.755 365.72 676.886 367.219C677.839 368.483 679.271 369.654 680.788 370.139C682.756 370.769 684.947 369.721 686.817 369.175C688.488 368.687 690.39 368.47 691.947 367.72" stroke="#DCEFF8" stroke-width="4" stroke-linecap="round" stroke-linejoin="round"/>
<path d="M1555.41 177.673C1554.39 179.091 1552.1 183.56 1550.22 180.668C1549.32 179.273 1549.13 177.496 1549.1 175.864C1549.08 174.109 1549.33 172.313 1550.02 170.697C1550.69 169.108 1551.92 168.008 1553.52 167.362" stroke="#DCEFF8" stroke-width="4" stroke-linecap="round" stroke-linejoin="round"/>
<path d="M1540.98 181.069C1541.34 182.295 1542.02 182.436 1543.1 182.892C1543.76 183.174 1544.94 183.949 1545.65 183.715C1546.68 183.376 1546.8 181.834 1547.32 181.021C1548 179.95 1548.37 178.932 1548.68 177.719C1549.09 176.103 1549.28 173.261 1547.9 171.989C1546.73 170.918 1545.11 170.023 1543.53 169.819C1541.48 169.553 1539.52 170.977 1537.78 171.85C1536.22 172.63 1534.39 173.185 1532.99 174.204" stroke="#DCEFF8" stroke-width="4" stroke-linecap="round" stroke-linejoin="round"/>
<path d="M444.828 370.782C445.149 376.393 445.554 381.027 449.1 385.577C451.081 388.119 452.709 387.113 454.153 384.622C455.196 382.824 455.545 380.788 455.907 378.77C456.135 377.503 456.049 375.811 456.393 378.318C456.941 382.302 457.348 386.311 458.095 390.266C458.833 394.17 460.546 398.328 458.199 402.022C455.465 406.325 449.958 406.853 445.314 406.971C443.004 407.03 440.704 406.916 438.403 406.728C437.198 406.629 437.085 406.518 436.389 407.04" stroke="#DCEFF8" stroke-width="4" stroke-linecap="round" stroke-linejoin="round"/>
<path d="M460.145 370.469C461.419 369.521 464.261 368.45 465.927 369.375C467.676 370.347 465.279 373.363 464.833 374.429C464.639 374.893 463.514 378.75 464.434 378.891C465.604 379.071 466.934 378.909 468.115 378.909C469.327 378.909 470.25 378.284 471.397 378.284" stroke="#DCEFF8" stroke-width="4" stroke-linecap="round" stroke-linejoin="round"/>
<path d="M553.759 173.647C549.537 177.357 546.137 180.531 544.737 186.128C543.956 189.254 545.752 189.917 548.603 189.52C550.662 189.233 552.48 188.254 554.293 187.295C555.431 186.694 556.711 185.584 554.948 187.4C552.148 190.286 549.241 193.077 546.587 196.102C543.966 199.089 541.747 203 537.391 203.427C532.318 203.925 528.509 199.913 525.554 196.328C524.084 194.545 522.757 192.663 521.487 190.735C520.822 189.725 520.84 189.567 520 189.34" stroke="#DCEFF8" stroke-width="4" stroke-linecap="round" stroke-linejoin="round"/>
<path d="M563.441 185.519C564.973 185.938 567.568 187.517 567.866 189.399C568.178 191.375 564.325 191.346 563.211 191.651C562.726 191.784 558.995 193.275 559.45 194.086C560.029 195.119 560.977 196.066 561.705 196.997C562.451 197.951 563.513 198.293 564.219 199.196" stroke="#DCEFF8" stroke-width="4" stroke-linecap="round" stroke-linejoin="round"/>
<path d="M1672.48 422.651C1675.96 426.105 1678.93 428.875 1683.88 429.758C1686.65 430.251 1687.12 428.648 1686.61 426.189C1686.23 424.413 1685.27 422.889 1684.33 421.368C1683.74 420.413 1682.69 419.365 1684.38 420.791C1687.06 423.057 1689.67 425.42 1692.46 427.55C1695.22 429.653 1698.76 431.351 1699.39 435.118C1700.13 439.506 1696.86 443.063 1693.92 445.85C1692.45 447.237 1690.89 448.506 1689.29 449.727C1688.45 450.366 1688.31 450.36 1688.16 451.105" stroke="#DCEFF8" stroke-width="4" stroke-linecap="round" stroke-linejoin="round"/>
<path d="M1682.23 413.508C1682.51 412.149 1683.72 409.795 1685.35 409.423C1687.05 409.033 1687.25 412.389 1687.59 413.341C1687.73 413.755 1689.25 416.915 1689.93 416.47C1690.8 415.904 1691.56 415.022 1692.33 414.332C1693.12 413.625 1693.35 412.68 1694.1 412.011" stroke="#DCEFF8" stroke-width="4" stroke-linecap="round" stroke-linejoin="round"/>
<path d="M629 445.137C630.57 448.191 634.129 455.349 636.217 458.674C637.629 460.922 638.439 461.431 638.521 459.021C638.58 457.275 638.395 455.592 638.174 453.863C637.753 450.57 636.371 445.317 637.624 442.059C638.347 440.178 638.145 440.367 640.722 440.367C650.645 440.367 660.556 440.422 670.466 440" stroke="#DCEFF8" stroke-width="4" stroke-linecap="round" stroke-linejoin="round"/>
<path d="M650.684 450.692C650.05 448.998 648.433 446.092 650.794 445.03C651.73 444.608 652.439 446.232 652.439 446.948C652.439 447.571 652.068 447.739 651.711 448.183C651.006 449.059 650.427 450.108 649.845 451.069C649.289 451.988 648.467 452.85 648.07 453.852C647.775 454.598 647.746 455.414 647.758 456.206C647.773 457.159 648.209 458.704 649.364 458.761C650.934 458.837 651.977 458.846 652.647 457.246C653.523 455.155 653.562 452.799 651.737 451.278" stroke="#DCEFF8" stroke-width="4" stroke-linecap="round" stroke-linejoin="round"/>
<path d="M656.768 450.926C657.414 450.11 659.656 447.267 660.473 446.271C660.753 445.93 661.348 444.883 661.397 445.322C661.437 445.689 661.183 446.029 661.098 446.388C660.954 446.993 660.833 447.603 660.694 448.209C659.773 452.223 659.595 456.178 659.459 460.288" stroke="#DCEFF8" stroke-width="4" stroke-linecap="round" stroke-linejoin="round"/>
<path d="M1399.77 376.233C1399.33 379.639 1398.21 387.554 1398.04 391.477C1397.93 394.129 1398.31 395.007 1399.75 393.067C1400.78 391.662 1401.58 390.171 1402.38 388.621C1403.9 385.669 1405.74 380.557 1408.62 378.582C1410.28 377.442 1410 377.483 1412.13 378.943C1420.3 384.565 1428.44 390.225 1436.85 395.492" stroke="#DCEFF8" stroke-width="4" stroke-linecap="round" stroke-linejoin="round"/>
<path d="M1414.49 393.095C1414.92 391.34 1415.24 388.029 1417.79 388.491C1418.8 388.675 1418.46 390.414 1418.05 391.004C1417.7 391.517 1417.3 391.445 1416.75 391.609C1415.68 391.932 1414.61 392.468 1413.58 392.931C1412.6 393.373 1411.44 393.617 1410.54 394.218C1409.88 394.665 1409.39 395.322 1408.95 395.981C1408.42 396.775 1407.91 398.295 1408.83 398.996C1410.08 399.949 1410.93 400.546 1412.39 399.608C1414.3 398.381 1415.66 396.462 1415.02 394.174" stroke="#DCEFF8" stroke-width="4" stroke-linecap="round" stroke-linejoin="round"/>
<path d="M1419.37 396.735C1420.36 396.429 1423.82 395.356 1425.06 394.999C1425.48 394.876 1426.57 394.351 1426.36 394.74C1426.18 395.065 1425.78 395.201 1425.51 395.449C1425.05 395.866 1424.6 396.3 1424.14 396.721C1421.11 399.506 1418.72 402.665 1416.28 405.975" stroke="#DCEFF8" stroke-width="4" stroke-linecap="round" stroke-linejoin="round"/>
</svg>
