<svg width="179" height="73" viewBox="0 0 179 73" fill="none" xmlns="http://www.w3.org/2000/svg">
<g filter="url(#filter0_d)">
<path d="M123.022 64.9237C121.079 64.9237 39.5121 65.9131 34.6569 59.9764C32.0674 60.6361 25.529 61.9553 20.0912 61.9553C12.4774 61.9553 8.19429 60.7609 5.98761 56.3488C4.54536 53.4651 4.24274 48.3263 8.15087 44.093C11.7563 40.1875 19.9294 39.8577 24.4609 40.1875C22.6807 38.8683 23.2936 27.5116 28.3412 24.6279C35.5549 20.5067 42.7629 23.9069 46.7949 30.2931C47.7659 21.8828 54.6603 4.66639 74.4695 3.08327C94.2787 1.50016 103.058 19.4092 105 30.2931C107.589 24.1915 116.726 12.4511 131.761 14.4619C147 16.5 154.58 35.5701 156.522 46.6189C160.73 44.3102 170.02 42.3643 173.516 53.0503C177.011 63.7363 160.73 65.4184 152.153 64.9237H123.022Z" fill="white"/>
</g>
<defs>
<filter id="filter0_d" x="0" y="0.984985" width="179" height="72.015" filterUnits="userSpaceOnUse" color-interpolation-filters="sRGB">
<feFlood flood-opacity="0" result="BackgroundImageFix"/>
<feColorMatrix in="SourceAlpha" type="matrix" values="0 0 0 0 0 0 0 0 0 0 0 0 0 0 0 0 0 0 127 0"/>
<feOffset dy="3"/>
<feGaussianBlur stdDeviation="2.5"/>
<feColorMatrix type="matrix" values="0 0 0 0 0 0 0 0 0 0 0 0 0 0 0 0 0 0 0.15 0"/>
<feBlend mode="normal" in2="BackgroundImageFix" result="effect1_dropShadow"/>
<feBlend mode="normal" in="SourceGraphic" in2="effect1_dropShadow" result="shape"/>
</filter>
</defs>
</svg>
