<svg width="2062" height="88" viewBox="0 0 2062 88" fill="none" xmlns="http://www.w3.org/2000/svg">
<mask id="mask0" mask-type="alpha" maskUnits="userSpaceOnUse" x="0" y="0" width="2062" height="88">
<rect width="2062" height="88" fill="#C4C4C4"/>
</mask>
<g mask="url(#mask0)">
<g filter="url(#filter0_d)">
<path d="M108.997 8.77803C47.9168 1.98757 10.8822 41.3156 0 61.8285L0 88L2062 88V19.3881C2059.54 19.6239 2052.84 20.4491 2045.68 21.8638C2038.52 23.2785 2032.86 30.4698 2030.93 33.8886C2030.41 30.8234 2025.35 24.6932 2009.34 24.6932C1993.34 24.6932 1976 39.3115 1969.33 46.6207C1968.8 42.023 1962.48 32.4739 1941.42 31.0592C1920.36 29.6445 1913.69 40.8441 1912.98 46.6207C1911.93 43.3198 1906.88 36.7179 1895.08 36.7179C1883.29 36.7179 1874.72 43.3198 1871.91 46.6207C1868.23 39.3115 1852.64 24.6932 1819.78 24.6932C1786.93 24.6932 1762.56 40.0188 1754.49 47.6817C1754.67 45.0881 1752.59 39.8302 1742.91 39.5473C1730.8 39.1936 1730.27 50.511 1729.74 49.45L1729.66 49.2752C1726.91 43.737 1722.73 35.3032 1706.57 35.3032C1697.1 35.3032 1688.14 40.2546 1687.09 43.7913C1684.3 35.6569 1662.34 27.5225 1641.28 27.5225C1610.06 27.5225 1593.36 37.0716 1586.52 46.6207C1585.11 42.3766 1578.66 35.6569 1563.35 35.6569C1552.1 35.6569 1545.16 39.9919 1544.92 41.5384C1544.99 35.8381 1538.18 24.6932 1510.17 24.6932C1481.94 24.6932 1467.52 44.9702 1463.83 55.1087C1462.43 53.2225 1455.93 49.45 1441.19 49.45C1426.44 49.45 1413.98 61.239 1409.59 67.1335C1406.96 58.4096 1396.33 41.1034 1374.84 41.6693C1353.36 42.2352 1349.74 57.4665 1350.62 65.0115C1346.76 59.5885 1333.98 48.8842 1313.76 49.45C1293.54 50.0159 1287.08 57.7023 1286.38 61.4748C1281.47 51.572 1263.42 32.1909 1230.57 33.8886C1197.71 35.5862 1183.53 51.8078 1180.54 59.7064L1180.31 59.4189C1175.22 53.167 1167.62 43.8344 1149.48 46.6207C1134.73 48.8842 1129.82 58.8812 1130.52 65.0115C1126.66 61.3569 1103.67 53.0836 1078.92 51.572C1049.96 49.8037 1030.82 58.7633 1017.84 61.4748C1012.92 54.1656 995.707 43.7913 964.127 43.7913C931.481 43.7913 914.28 59.3528 908.839 65.0115C908.488 62.7716 881.984 51.572 862.501 51.572C817.607 51.572 816.515 59.9422 800.894 65.0115C800.017 61.239 792.5 51.572 772.987 53.6941C760.423 55.0603 755.786 61.239 753.504 65.0115C752.451 63.361 747.109 61.6111 745 61C742.891 60.3889 741.5 60 737.5 60H727.5C722 60 716 61.5 713.486 65.0115C713.486 62.7716 705.589 52.633 684 53.6941C662.411 54.7551 658.197 65.0115 650.299 69.6092C645.735 65.8367 632.712 58.2918 617.126 58.2918C601.539 58.2918 591.324 62.7716 588.165 65.0115C584.83 56.5234 571.577 42.4185 547.093 39.5473C513.92 35.6569 493.911 52.0436 482.853 58.2918C478.114 51.572 462.844 38.4155 439.676 39.5473C416.507 40.679 404.396 49.6858 401.237 54.0477C400.359 51.4541 396.182 46.267 386.493 46.267C376.805 46.267 369.819 51.4541 367.537 54.0477C367.362 51.4541 362.693 47.6817 355.953 47.6817C349.213 47.6817 344.895 51.4541 342.262 54.0477C342.262 47.0922 334.575 32.6154 303.824 30.3519C273.073 28.0884 256.96 40.0188 252.748 46.267C254.678 40.7262 251.373 25.6183 228.526 24.3395C203.251 22.9248 193.598 34.5959 187.981 43.7913C187.104 34.9496 170.078 15.5685 108.997 8.77803Z" fill="white"/>
</g>
</g>
<defs>
<filter id="filter0_d" x="-5" y="0" width="2072" height="90" filterUnits="userSpaceOnUse" color-interpolation-filters="sRGB">
<feFlood flood-opacity="0" result="BackgroundImageFix"/>
<feColorMatrix in="SourceAlpha" type="matrix" values="0 0 0 0 0 0 0 0 0 0 0 0 0 0 0 0 0 0 127 0"/>
<feOffset dy="-3"/>
<feGaussianBlur stdDeviation="2.5"/>
<feColorMatrix type="matrix" values="0 0 0 0 0 0 0 0 0 0 0 0 0 0 0 0 0 0 0.2 0"/>
<feBlend mode="normal" in2="BackgroundImageFix" result="effect1_dropShadow"/>
<feBlend mode="normal" in="SourceGraphic" in2="effect1_dropShadow" result="shape"/>
</filter>
</defs>
</svg>
