<svg width="2000" height="99" viewBox="0 0 2000 99" fill="none" xmlns="http://www.w3.org/2000/svg">
<mask id="mask0" mask-type="alpha" maskUnits="userSpaceOnUse" x="0" y="0" width="2000" height="99">
<rect width="2000" height="99" fill="#C4C4C4"/>
</mask>
<g mask="url(#mask0)">
<g filter="url(#filter0_d)">
<path d="M92.3519 50.84C91.3258 61.008 71.4188 83.2962 0 91.1053V0H2000.34V72.8029C1961.92 72.8029 1933.44 55.1783 1924 46.3661C1924.2 49.3487 1921.78 55.3953 1910.45 55.7206C1896.29 56.1274 1895.68 43.1123 1895.06 44.3325L1894.96 44.5334C1891.75 50.9022 1886.86 60.6013 1867.97 60.6013C1856.89 60.6013 1846.42 54.9072 1845.19 50.84C1841.92 60.1945 1816.25 69.5491 1791.63 69.5491C1755.13 69.5491 1735.6 58.5677 1727.6 47.5862C1725.95 52.4669 1718.41 60.1946 1700.51 60.1946C1687.35 60.1946 1679.23 55.2092 1678.96 53.4308C1679.04 59.9861 1671.07 72.8029 1638.32 72.8029C1605.32 72.8029 1588.45 49.4843 1584.14 37.825C1582.5 39.9941 1574.91 44.3325 1557.67 44.3325C1540.43 44.3325 1525.86 30.7751 1520.73 23.9965C1517.65 34.0289 1505.21 53.9311 1480.09 53.2803C1454.97 52.6296 1450.75 35.1135 1451.77 26.4368C1447.26 32.6732 1432.32 44.9832 1408.67 44.3325C1385.03 43.6817 1377.48 34.8423 1376.66 30.504C1370.91 41.8922 1349.82 64.1804 1311.4 62.2282C1272.98 60.2759 1256.4 41.621 1252.91 32.5376L1252.63 32.8681C1246.68 40.0578 1237.8 50.7905 1216.58 47.5862C1199.34 44.9832 1193.6 33.4866 1194.42 26.4368C1189.9 30.6396 1163.03 40.1539 1134.08 41.8922C1100.22 43.9258 1077.85 33.6222 1062.66 30.504C1056.92 38.9095 1036.79 50.84 999.863 50.84C961.691 50.84 941.579 32.9443 935.217 26.4368C934.806 29.0127 903.817 41.8922 881.037 41.8922C828.544 41.8922 827.268 32.2664 809.003 26.4368C807.976 30.7751 789.93 39.4518 776.372 39.4518C761.595 39.4518 756.259 30.7751 753.591 26.4368C752.36 28.3348 748.666 29.6906 743.741 29.6906C738.815 29.6906 734.3 28.3348 733.274 26.4368C732.658 27.7925 728.964 29.6906 724.039 29.6906C719.113 29.6906 707.826 27.7925 706.8 26.4368C706.8 29.0127 704.337 37.825 679.094 36.6048C653.851 35.3846 642.153 26.4368 632.918 21.1494C627.582 25.4878 612.355 34.1645 594.13 34.1645C575.906 34.1645 563.962 29.0127 560.268 26.4368C556.369 36.1981 540.872 52.4187 512.245 55.7206C473.457 60.1946 450.062 41.3499 437.132 34.1645C431.591 41.8922 413.736 57.0221 386.647 55.7206C359.557 54.4191 345.396 44.0613 341.702 39.0451C340.676 42.0277 335.791 47.993 324.463 47.993C313.134 47.993 304.966 42.0277 302.299 39.0451C302.093 42.0277 296.634 46.3661 288.754 46.3661C280.873 46.3661 275.824 42.0277 272.746 39.0451C272.746 47.0439 263.757 63.6923 227.801 66.2953C191.846 68.8984 173.006 55.1783 168.08 47.993C170.338 54.3649 166.473 71.739 139.759 73.2096C110.207 74.8365 98.9191 61.4147 92.3519 50.84Z" fill="white"/>
</g>
</g>
<defs>
<filter id="filter0_d" x="-5" y="-2" width="2010.34" height="101.105" filterUnits="userSpaceOnUse" color-interpolation-filters="sRGB">
<feFlood flood-opacity="0" result="BackgroundImageFix"/>
<feColorMatrix in="SourceAlpha" type="matrix" values="0 0 0 0 0 0 0 0 0 0 0 0 0 0 0 0 0 0 127 0"/>
<feOffset dy="3"/>
<feGaussianBlur stdDeviation="2.5"/>
<feColorMatrix type="matrix" values="0 0 0 0 0 0 0 0 0 0 0 0 0 0 0 0 0 0 0.2 0"/>
<feBlend mode="normal" in2="BackgroundImageFix" result="effect1_dropShadow"/>
<feBlend mode="normal" in="SourceGraphic" in2="effect1_dropShadow" result="shape"/>
</filter>
</defs>
</svg>
