<svg width="1920" height="31" viewBox="0 0 1920 31" fill="none" xmlns="http://www.w3.org/2000/svg">
<path opacity="0.4" d="M-6 4C29.6224 4 22.8776 27 58.5 27C94.1224 27 87.3776 4 123 4C158.622 4 151.878 27 187.5 27C223.122 27 216.378 4 252 4C287.622 4 280.878 27 316.5 27C352.122 27 345.378 4 381 4C416.622 4 409.878 27 445.5 27C481.122 27 474.378 4 510 4C545.622 4 538.878 27 574.5 27C610.122 27 603.378 4 639 4C674.622 4 667.878 27 703.5 27C739.122 27 732.378 4 768 4C803.622 4 796.878 27 832.5 27C868.122 27 861.378 4 897 4C932.622 4 925.878 27 961.5 27C997.122 27 990.378 4 1026 4C1061.62 4 1054.88 27 1090.5 27C1126.12 27 1119.38 4 1155 4C1190.62 4 1183.88 27 1219.5 27C1255.12 27 1248.38 4 1284 4C1319.62 4 1312.88 27 1348.5 27C1384.12 27 1377.38 4 1413 4C1448.62 4 1441.88 27 1477.5 27C1513.12 27 1506.38 4 1542 4C1577.62 4 1570.88 27 1606.5 27C1642.12 27 1635.38 4 1671 4C1706.62 4 1699.88 27 1735.5 27C1771.12 27 1764.38 4 1800 4C1835.62 4 1828.88 27 1864.5 27C1900.12 27 1893.38 4 1929 4" stroke="#FFA209" stroke-width="8" stroke-linecap="round" stroke-linejoin="round" stroke-dasharray="18 18"/>
</svg>
