<svg width="289" height="125" viewBox="0 0 289 125" fill="none" xmlns="http://www.w3.org/2000/svg">
<path d="M3.49196 75.0937C26.0774 59.6979 42.5002 47.4548 72.8755 42.9235C89.3339 42.6129 107.406 42.6276 123.327 47.4548C135.216 51.0596 144.508 66.8267 148.087 78.988C151.656 91.1164 146.42 100.907 134.839 102.655C122.701 104.487 117.846 100.894 114.43 88.8519C110.214 73.989 119.393 61.3079 128.987 51.5021C147.828 32.2426 171.094 24.4426 196.192 26.9506C206.238 27.9545 217.689 28.2536 226.916 32.9571C237.705 38.4574 247.476 46.7464 257.753 53.28C266.542 58.8669 272.7 65.6619 280.312 72.2427" stroke="#FDCDB3" stroke-width="3" stroke-linecap="round" stroke-linejoin="round" stroke-dasharray="8 8"/>
<path d="M271.764 76.4585C274.775 75.806 277.874 77.6265 280.555 78.7839C281.865 79.3492 283.164 79.9156 284.411 80.611C284.706 80.7753 286.267 82.0828 286.451 81.2042C287.061 78.3022 285.69 74.7227 284.968 72.0213C284.139 68.9176 283.072 65.8845 282.228 62.791" stroke="#FDCDB3" stroke-width="3" stroke-linecap="round" stroke-linejoin="round"/>
</svg>
