<svg width="1738" height="762" viewBox="0 0 1738 762" fill="none" xmlns="http://www.w3.org/2000/svg">
<circle opacity="0.4" cx="1386.5" cy="384.5" r="15.5" stroke="white" stroke-width="8"/>
<rect x="189.227" y="386.041" width="23.5341" height="23.5341" transform="rotate(109.485 189.227 386.041)" stroke="#BE8DAA" stroke-width="5"/>
<rect x="1559.57" y="247.97" width="23.5341" height="23.5341" transform="rotate(-169.213 1559.57 247.97)" stroke="#E194C2" stroke-width="5"/>
<path opacity="0.4" d="M1729.01 336C1729.01 336 1732.57 345.826 1726.25 350.56C1719.92 355.294 1715.13 346.391 1708.8 351.125C1702.48 355.858 1709.67 362.968 1703.34 367.702C1697.02 372.435 1692.23 363.533 1685.9 368.266C1679.58 373 1686.77 380.11 1680.44 384.843C1674.12 389.577 1669.32 380.675 1663 385.408" stroke="#FFFEFC" stroke-width="3" stroke-linecap="round" stroke-linejoin="round"/>
<path d="M214.36 46.6638C214.36 46.6638 207.258 52.6735 198.28 48.3945C189.302 44.1155 194.651 37.2701 185.673 32.9911C176.695 28.7121 174.746 37.1778 165.768 32.8987C156.79 28.6197 162.139 21.7744 153.161 17.4954C144.183 13.2163 142.234 21.682 133.256 17.403C124.278 13.1239 129.627 6.27863 120.649 1.9996" stroke="#FFCBAE" stroke-width="3" stroke-linecap="round" stroke-linejoin="round"/>
<path d="M1503.9 27.5588L1521.01 25.2254L1526.31 41.658L1543.42 39.3245L1548.72 55.7571L1565.83 53.4236L1571.13 69.8563L1588.24 67.5228L1593.54 83.9554L1610.65 81.6219" stroke="#EFBE6C" stroke-width="5" stroke-linecap="round" stroke-linejoin="round"/>
<path d="M13.6222 629.677L22.7287 613.737L41.0796 613.242L50.1862 597.303L68.5371 596.808L77.6437 580.868L95.9946 580.374L105.101 564.434L123.452 563.939L132.559 548" stroke="#79D2FB" stroke-width="5" stroke-linecap="round" stroke-linejoin="round"/>
</svg>
