<svg width="1872" height="731" viewBox="0 0 1872 731" fill="none" xmlns="http://www.w3.org/2000/svg">
<path opacity="0.4" d="M32.0008 439.24C32.0008 439.24 40.1698 432.721 46.6794 437.197C53.189 441.672 46.2913 449.065 52.801 453.54C59.3106 458.015 63.7432 448.928 70.2529 453.403C76.7625 457.878 69.8648 465.271 76.3744 469.747C82.8841 474.222 87.3167 465.134 93.8264 469.609C100.336 474.084 93.4383 481.478 99.9479 485.953" stroke="#FFA209" stroke-width="5" stroke-linecap="round" stroke-linejoin="round"/>
<path opacity="0.4" d="M710.725 672C710.725 672 713.015 682.197 706.144 686.094C699.272 689.991 695.64 680.555 688.769 684.451C681.897 688.348 688.131 696.309 681.259 700.206C674.388 704.102 670.756 694.666 663.885 698.563C657.013 702.459 663.247 710.42 656.375 714.317C649.504 718.214 645.872 708.777 639 712.674" stroke="#FFA209" stroke-width="5" stroke-linecap="round" stroke-linejoin="round"/>
<path opacity="0.2" d="M164.011 188.781L157.726 167.044L179.463 160.759L173.178 139.022L194.915 132.737L188.63 111" stroke="#05A5EF" stroke-width="5" stroke-linecap="round" stroke-linejoin="round"/>
<path opacity="0.2" d="M1481.46 429.09L1502.09 419.793L1511.39 440.422L1532.02 431.125L1541.32 451.754L1561.95 442.457" stroke="#05A5EF" stroke-width="6" stroke-linecap="round" stroke-linejoin="round"/>
<path opacity="0.4" d="M1838.29 577.539L1853.34 591.757L1842.32 609.285L1857.37 623.503L1846.34 641.03L1861.4 655.249L1850.37 672.776L1865.43 686.994L1854.4 704.521L1869.45 718.74" stroke="#05A5EF" stroke-width="3" stroke-linecap="round" stroke-linejoin="round"/>
<circle opacity="0.4" cx="1612" cy="702" r="8.5" stroke="#FFC501" stroke-width="5"/>
<circle opacity="0.4" cx="11" cy="82" r="8.5" stroke="#FFC501" stroke-width="5"/>
<circle opacity="0.4" cx="1117.5" cy="721.5" r="7" stroke="#05A5EF" stroke-width="5"/>
<rect opacity="0.7" x="1220.43" y="3.52283" width="13.8223" height="13.8223" transform="rotate(40.1413 1220.43 3.52283)" stroke="#BE8DAA" stroke-width="5"/>
<rect opacity="0.5" x="1390.14" y="624.09" width="16.3524" height="16.3524" transform="rotate(40.1413 1390.14 624.09)" stroke="#BE8DAA" stroke-width="6"/>
<rect opacity="0.2" x="266.397" y="650.184" width="13.8223" height="13.8223" transform="rotate(107.081 266.397 650.184)" stroke="#374246" stroke-width="5"/>
<rect opacity="0.2" x="1789.63" y="126.415" width="18.0133" height="18.0133" transform="rotate(107.081 1789.63 126.415)" stroke="#05A5EF" stroke-width="5"/>
</svg>
