<svg width="149" height="7" viewBox="0 0 149 7" fill="none" xmlns="http://www.w3.org/2000/svg">
<path d="M1.5542 1C7.75678 1 6.58239 6 12.785 6C18.9876 6 17.8132 1 24.0157 1C30.2183 1 29.0439 6 35.2465 6C41.4491 6 40.2747 1 46.4773 1C52.6799 1 51.5055 6 57.708 6C63.9106 6 62.7362 1 68.9388 1C75.1414 1 73.967 6 80.1696 6C86.3722 6 85.1978 1 91.4004 1C97.6029 1 96.4285 6 102.631 6C108.834 6 107.659 1 113.862 1C120.064 1 118.89 6 125.093 6C131.295 6 130.121 1 136.323 1C142.526 1 141.352 6 147.554 6" stroke="#FFA209" stroke-width="2" stroke-linecap="round" stroke-linejoin="round"/>
</svg>
