<svg width="104" height="104" viewBox="0 0 104 104" fill="none" xmlns="http://www.w3.org/2000/svg">
<circle cx="52.0005" cy="52.0916" r="49.2017" fill="#FFD958" fill-opacity="0.7" stroke="#FFC501" stroke-width="5"/>
<g filter="url(#filter0_d)">
<path d="M68.1797 49.9426C69.513 50.7124 69.513 52.6369 68.1797 53.4067L44.7848 66.9137C43.4514 67.6835 41.7848 66.7213 41.7848 65.1817L41.7848 38.1675C41.7848 36.6279 43.4514 35.6657 44.7848 36.4355L68.1797 49.9426Z" fill="#FFC501"/>
<path d="M68.1797 49.9426C69.513 50.7124 69.513 52.6369 68.1797 53.4067L44.7848 66.9137C43.4514 67.6835 41.7848 66.7213 41.7848 65.1817L41.7848 38.1675C41.7848 36.6279 43.4514 35.6657 44.7848 36.4355L68.1797 49.9426Z" stroke="#FFC501" stroke-width="4" stroke-linecap="round" stroke-linejoin="round"/>
</g>
<defs>
<filter id="filter0_d" x="34.7852" y="29.1616" width="41.3949" height="45.0261" filterUnits="userSpaceOnUse" color-interpolation-filters="sRGB">
<feFlood flood-opacity="0" result="BackgroundImageFix"/>
<feColorMatrix in="SourceAlpha" type="matrix" values="0 0 0 0 0 0 0 0 0 0 0 0 0 0 0 0 0 0 127 0"/>
<feOffset/>
<feGaussianBlur stdDeviation="2.5"/>
<feColorMatrix type="matrix" values="0 0 0 0 0 0 0 0 0 0 0 0 0 0 0 0 0 0 0.25 0"/>
<feBlend mode="normal" in2="BackgroundImageFix" result="effect1_dropShadow"/>
<feBlend mode="normal" in="SourceGraphic" in2="effect1_dropShadow" result="shape"/>
</filter>
</defs>
</svg>
