<svg width="1789" height="547" viewBox="0 0 1789 547" fill="none" xmlns="http://www.w3.org/2000/svg">
<path d="M117.828 169.212L115.88 147.341L137.588 144.041L135.64 122.17L157.348 118.871L155.4 96.9998" stroke="#E194C2" stroke-width="6" stroke-linecap="round" stroke-linejoin="round"/>
<rect x="1425.53" y="363.708" width="23.5341" height="23.5341" transform="rotate(-46.8685 1425.53 363.708)" stroke="#D6B6FF" stroke-width="5"/>
<path d="M1779.21 3.887C1779.21 3.887 1785.23 16.1384 1776.57 25.5054C1767.91 34.8723 1760.2 24.4501 1751.54 33.8171C1742.88 43.1841 1753.87 50.0592 1745.21 59.4261C1736.55 68.7931 1728.84 58.3709 1720.18 67.7379C1711.52 77.1048 1722.51 83.9799 1713.85 93.3469C1705.19 102.714 1697.47 92.2917 1688.81 101.659" stroke="#93DDFF" stroke-width="5" stroke-linecap="round" stroke-linejoin="round"/>
<rect x="25.9961" y="388.651" width="29.9014" height="30.201" transform="rotate(42.348 25.9961 388.651)" stroke="#FFAF82" stroke-width="8"/>
<circle opacity="0.7" cx="1661" cy="474" r="13.5" stroke="#FFFBEF" stroke-width="7"/>
</svg>
