<svg width="1935" height="52" viewBox="0 0 1935 52" fill="none" xmlns="http://www.w3.org/2000/svg">
<path d="M1870.25 51.2333C1905.86 51.2333 1899.12 33.419 1934.74 33.419V0H0.000244141V33.419C35.6178 33.419 28.8737 51.2333 64.4912 51.2333C100.109 51.2333 93.3649 33.419 128.982 33.419C164.6 33.419 157.856 51.2333 193.474 51.2333C229.091 51.2333 222.347 33.419 257.965 33.419C293.582 33.419 286.839 51.2333 322.456 51.2333C358.074 51.2333 351.33 33.419 386.947 33.419C422.565 33.419 415.821 51.2333 451.438 51.2333C487.056 51.2333 480.312 33.419 515.93 33.419C551.547 33.419 544.803 51.2333 580.421 51.2333C616.038 51.2333 609.295 33.419 644.912 33.419C680.53 33.419 673.786 51.2333 709.403 51.2333C745.021 51.2333 738.277 33.419 773.895 33.419C809.512 33.419 802.768 51.2333 838.386 51.2333C874.003 51.2333 867.259 33.419 902.877 33.419C938.494 33.419 931.751 51.2333 967.368 51.2333C1002.99 51.2333 996.242 33.419 1031.86 33.419C1067.48 33.419 1060.73 51.2333 1096.35 51.2333C1131.97 51.2333 1125.22 33.419 1160.84 33.419C1196.46 33.419 1189.72 51.2333 1225.33 51.2333C1260.95 51.2333 1254.21 33.419 1289.82 33.419C1325.44 33.419 1318.7 51.2333 1354.32 51.2333C1389.93 51.2333 1383.19 33.419 1418.81 33.419C1454.42 33.419 1447.68 51.2333 1483.3 51.2333C1518.92 51.2333 1512.17 33.419 1547.79 33.419C1583.41 33.419 1576.66 51.2333 1612.28 51.2333C1647.9 51.2333 1641.15 33.419 1676.77 33.419C1712.39 33.419 1705.65 51.2333 1741.26 51.2333C1776.88 51.2333 1770.14 33.419 1805.75 33.419C1841.37 33.419 1834.63 51.2333 1870.25 51.2333Z" fill="white"/>
</svg>
