<svg width="1724" height="788" viewBox="0 0 1724 788" fill="none" xmlns="http://www.w3.org/2000/svg">
<path d="M5.00093 494.592L27.399 497.806L24.1857 520.204L46.5838 523.417L43.3705 545.815L65.7685 549.029" stroke="#FED752" stroke-width="6" stroke-linecap="round" stroke-linejoin="round"/>
<circle opacity="0.4" cx="1582.5" cy="768.5" r="15.5" stroke="white" stroke-width="8"/>
<circle opacity="0.4" cx="101" cy="11" r="8.5" stroke="white" stroke-width="5"/>
<rect x="118.227" y="753.041" width="23.5341" height="23.5341" transform="rotate(109.485 118.227 753.041)" stroke="#BE8DAA" stroke-width="5"/>
<path opacity="0.4" d="M1715.01 396C1715.01 396 1718.57 405.826 1712.25 410.56C1705.92 415.294 1701.13 406.391 1694.8 411.125C1688.48 415.858 1695.67 422.968 1689.34 427.702C1683.02 432.435 1678.23 423.533 1671.9 428.266C1665.58 433 1672.77 440.11 1666.44 444.843C1660.12 449.577 1655.32 440.675 1649 445.408" stroke="#FFFEFC" stroke-width="3" stroke-linecap="round" stroke-linejoin="round"/>
<path d="M1566.28 160.56L1584.94 160.6L1585.03 179.256L1603.68 179.296L1603.77 197.951L1622.43 197.991L1622.52 216.647L1641.18 216.687L1641.27 235.342L1659.93 235.382" stroke="#EFBE6C" stroke-width="5" stroke-linecap="round" stroke-linejoin="round"/>
<path d="M297.001 33.849L314.374 27.9185L328.464 39.6861L345.837 33.7556L359.927 45.5232L377.3 39.5927L391.39 51.3603L408.764 45.4298L422.853 57.1974L440.227 51.2669" stroke="#79D2FB" stroke-width="5" stroke-linecap="round" stroke-linejoin="round"/>
</svg>
