<svg width="1793" height="619" viewBox="0 0 1793 619" fill="none" xmlns="http://www.w3.org/2000/svg">
<path d="M117.828 182.325L115.88 160.454L137.588 157.154L135.64 135.283L157.348 131.984L155.4 110.113" stroke="#BE8DAA" stroke-opacity="0.51" stroke-width="6" stroke-linecap="round" stroke-linejoin="round"/>
<path d="M1661 275.814L1679.35 263.75L1692.52 281.314L1710.87 269.249L1724.05 286.813L1742.39 274.749" stroke="#BE8DAA" stroke-opacity="0.51" stroke-width="6" stroke-linecap="round" stroke-linejoin="round"/>
<rect x="1425.53" y="376.821" width="23.5341" height="23.5341" transform="rotate(-46.8685 1425.53 376.821)" stroke="#BE8DAA" stroke-width="5"/>
<path opacity="0.5" d="M736.891 542.471L713.106 551.341L691.338 538.283L667.554 547.153L645.785 534.094L622.001 542.964" stroke="#FED752" stroke-width="6" stroke-linecap="round" stroke-linejoin="round"/>
<path opacity="0.4" d="M287 377.398C287 377.398 297.058 374.558 301.323 381.207C305.587 387.857 296.362 391.996 300.626 398.646C304.891 405.295 312.501 398.638 316.766 405.288C321.03 411.937 311.805 416.077 316.069 422.726C320.334 429.376 327.944 422.719 332.208 429.368C336.473 436.018 327.248 440.157 331.512 446.807" stroke="#69CFFF" stroke-width="7" stroke-linecap="round" stroke-linejoin="round"/>
<path d="M1779.21 16.9998C1779.21 16.9998 1785.23 29.2512 1776.57 38.6181C1767.91 47.9851 1760.2 37.5629 1751.54 46.9299C1742.88 56.2968 1753.87 63.1719 1745.21 72.5389C1736.55 81.9059 1728.84 71.4837 1720.18 80.8507C1711.52 90.2176 1722.51 97.0927 1713.85 106.46C1705.19 115.827 1697.47 105.404 1688.81 114.771" stroke="#93DDFF" stroke-width="5" stroke-linecap="round" stroke-linejoin="round"/>
<rect opacity="0.3" x="25.9961" y="401.764" width="29.9014" height="30.201" transform="rotate(42.348 25.9961 401.764)" stroke="#F95A00" stroke-width="8"/>
<circle opacity="0.7" cx="1661" cy="487.113" r="13.5" stroke="#FED752" stroke-width="7"/>
<circle opacity="0.5" cx="357" cy="17" r="13.5" stroke="#FFA209" stroke-width="7"/>
</svg>
